<?xml version="1.0" standalone="no"?><!DOCTYPE svg PUBLIC "-//W3C//DTD SVG 1.1//EN" "http://www.w3.org/Graphics/SVG/1.1/DTD/svg11.dtd"><svg t="1489970767095" class="icon" style="" viewBox="0 0 1024 1024" version="1.1" xmlns="http://www.w3.org/2000/svg" p-id="3911" xmlns:xlink="http://www.w3.org/1999/xlink" width="128" height="128"><defs><style type="text/css"></style></defs><path d="M943.546132 822.666552c0 52.618405-42.658565 95.274924-95.274924 95.274924L145.401066 917.941476c-52.616358 0-95.2739-42.657542-95.2739-95.274924L50.127166 339.716168c0-52.617381 42.657542-95.2739 95.2739-95.2739l702.869119 0c52.617381 0 95.274924 42.657542 95.274924 95.2739L943.545108 822.666552zM888.564913 339.716168c0-22.254863-18.039865-40.294728-40.294728-40.294728L145.401066 299.42144c-22.254863 0-40.294728 18.039865-40.294728 40.294728l0 482.950384c0 22.254863 18.039865 40.295751 40.294728 40.295751l702.869119 0c22.254863 0 40.294728-18.040888 40.294728-40.295751L888.564913 339.716168z" p-id="3912"></path><path d="M173.830559 491.850078c-7.597025 0-13.745049-6.148024-13.745049-13.745049l0-52.254108c0-37.395702 31.798217-71.449285 67.39597-71.449285l248.106728 0c7.583722 0 13.745049 6.148024 13.745049 13.745049 0 7.597025-6.161327 13.745049-13.745049 13.745049L227.48148 381.891733c-20.080338 0-39.905872 22.188348-39.905872 43.959188l0 52.254108C187.575608 485.702054 181.414281 491.850078 173.830559 491.850078z" p-id="3913"></path><path d="M173.830559 560.574299c-7.597025 0-13.745049-6.148024-13.745049-13.745049l0-27.490098c0-7.597025 6.148024-13.745049 13.745049-13.745049 7.583722 0 13.745049 6.148024 13.745049 13.745049l0 27.490098C187.575608 554.426275 181.414281 560.574299 173.830559 560.574299z" p-id="3914"></path><path d="M832.954361 189.462073 159.455153 189.462073c-15.180747 0-27.490098-12.308327-27.490098-27.490098s12.308327-27.490098 27.490098-27.490098L832.954361 134.481877c15.181771 0 27.489074 12.308327 27.489074 27.490098S848.136132 189.462073 832.954361 189.462073z" p-id="3915"></path><path d="M750.486114 79.502705 241.924423 79.502705c-15.180747 0-27.490098-12.308327-27.490098-27.490098s12.308327-27.490098 27.490098-27.490098L750.486114 24.52251c15.180747 0 27.490098 12.308327 27.490098 27.490098S765.666862 79.502705 750.486114 79.502705z" p-id="3916"></path></svg>