<?xml version="1.0" standalone="no"?><!DOCTYPE svg PUBLIC "-//W3C//DTD SVG 1.1//EN" "http://www.w3.org/Graphics/SVG/1.1/DTD/svg11.dtd"><svg t="1490044665331" class="icon" style="" viewBox="0 0 1024 1024" version="1.1" xmlns="http://www.w3.org/2000/svg" p-id="3989" xmlns:xlink="http://www.w3.org/1999/xlink" width="128" height="128"><defs><style type="text/css"></style></defs><path d="M782.3 126.91025C774.2 113.303885 759.5 105 743.6 105L285.1 105C269.2 105 254.5 113.303885 246.4 126.91025L0 537.802481 0 627.144278 0 886.665692C0 927.184648 32.8 960 73.3 960L950.7 960C991.2 960 1024 927.284695 1024 886.765738L1024 627.244325 1024 529.798736 782.3 126.91025ZM877.9 627.244325 749.1 627.244325C740.2 628.34484 729.2 632.846946 723.1 638.34952L607.9 740.597355 415.9 740.597355 300.7 638.34952C294.6 632.846946 283.6 628.34484 274.7 627.244325L85.5 627.244325 85.5 561.513574 307.8 190.540019 720.7 190.540019 938.45 553.509829 938.4 600.131641 877.9 627.244325Z" p-id="3990"></path></svg>