<?xml version="1.0" standalone="no"?><!DOCTYPE svg PUBLIC "-//W3C//DTD SVG 1.1//EN" "http://www.w3.org/Graphics/SVG/1.1/DTD/svg11.dtd"><svg class="icon" width="200px" height="200.00px" viewBox="0 0 1024 1024" version="1.1" xmlns="http://www.w3.org/2000/svg"><path d="M826.090023 861.946161c0 53.442166-43.324738 96.764857-96.764857 96.764857L294.670741 958.711018c-53.439096 0-96.761788-43.322691-96.761788-96.764857L197.908954 162.052816c0-53.439096 43.322691-96.762811 96.761788-96.762811l434.655448 0c53.44012 0 96.764857 43.323715 96.764857 96.762811L826.091046 861.946161 826.090023 861.946161zM770.25025 162.052816c0-22.602787-18.321274-40.925085-40.924061-40.925085L294.670741 121.127731c-22.601764 0-40.924061 18.322297-40.924061 40.925085l0 699.893344c0 22.602787 18.322297 40.924061 40.924061 40.924061l434.655448 0c22.602787 0 40.924061-18.321274 40.924061-40.924061L770.25025 162.052816 770.25025 162.052816zM797.529547 777.23278 225.18825 777.23278c-7.716752 0-13.959943-6.244214-13.959943-13.95892 0-7.716752 6.244214-13.960966 13.959943-13.960966l572.341297 0c7.701402 0 13.960966 6.244214 13.960966 13.960966C811.48949 770.989589 805.231973 777.23278 797.529547 777.23278zM797.529547 218.845287 225.18825 218.845287c-7.716752 0-13.959943-6.243191-13.959943-13.95892 0-7.716752 6.244214-13.960966 13.959943-13.960966l572.341297 0c7.701402 0 13.960966 6.244214 13.960966 13.960966C811.48949 212.602096 805.231973 218.845287 797.529547 218.845287zM546.898323 836.56305c0 13.495362-10.946306 24.429389-24.429389 24.429389l-6.978948 0c-13.483082 0-24.430412-10.93505-24.430412-24.429389l0-6.980995c0-13.495362 10.94733-24.429389 24.430412-24.429389l6.978948 0c13.483082 0 24.429389 10.937097 24.429389 24.429389L546.898323 836.56305zM575.090409 466.872197c-1.526773 0-3.094478-0.24457-4.623297-0.789992-7.277754-2.549056-11.096732-10.523681-8.547677-17.803481l3.790326-10.782577c2.562359-7.266497 10.497075-11.137665 17.801435-8.534374 7.267521 2.549056 11.098779 10.523681 8.534374 17.803481l-3.78828 10.782577C586.240353 463.286532 580.855716 466.872197 575.090409 466.872197zM521.869277 618.443287c-1.526773 0-3.094478-0.2415-4.623297-0.787946-7.2798-2.537799-11.096732-10.524704-8.547677-17.775852l39.588647-112.7489c2.549056-7.278777 10.510378-11.150968 17.804505-8.547677 7.265474 2.549056 11.096732 10.524704 8.53335 17.790178l-39.588647 112.747877C533.020244 614.875019 527.635607 618.443287 521.869277 618.443287zM465.29477 513.174756c-1.526773 0-3.095501-0.24457-4.623297-0.789992-7.278777-2.535753-11.096732-10.523681-8.547677-17.781992l57.882292-164.883281c2.536776-7.293103 10.510378-11.137665 17.791202-8.547677 7.277754 2.549056 11.097756 10.524704 8.5487 17.790178l-57.882292 164.890444C476.459041 509.603417 471.061101 513.174756 465.29477 513.174756zM438.111664 590.523401c-1.526773 0-3.093455-0.2415-4.621251-0.787946-7.2798-2.537799-11.096732-10.522658-8.5487-17.803481l8.520047-24.211425c2.549056-7.278777 10.497075-11.122315 17.790178-8.534374 7.278777 2.536776 11.097756 10.524704 8.5487 17.803481l-8.520047 24.211425C449.262632 586.956156 443.880041 590.523401 438.111664 590.523401z" /></svg>