<?xml version="1.0" standalone="no"?><!DOCTYPE svg PUBLIC "-//W3C//DTD SVG 1.1//EN" "http://www.w3.org/Graphics/SVG/1.1/DTD/svg11.dtd"><svg t="1489970503842" class="icon" style="" viewBox="0 0 1024 1024" version="1.1" xmlns="http://www.w3.org/2000/svg" p-id="3285" xmlns:xlink="http://www.w3.org/1999/xlink" width="128" height="128"><defs><style type="text/css"></style></defs><path d="M501.601674 936.87264c-63.439868 0-115.061572-51.620681-115.061572-115.061572L386.540102 598.456071 164.797835 598.456071c-63.439868 0-115.061572-51.620681-115.061572-115.060549s51.621704-115.061572 115.061572-115.061572l221.741243 0 0-209.818703c0-63.439868 51.621704-115.061572 115.061572-115.061572s115.061572 51.621704 115.061572 115.061572l0 209.818703L828.093657 368.33395c63.438844 0 115.061572 51.621704 115.061572 115.061572s-51.622728 115.060549-115.061572 115.060549L616.663246 598.456071l0 223.354997C616.663246 885.251959 565.041542 936.87264 501.601674 936.87264zM164.797835 422.48015c-33.591049 0-60.915371 27.324322-60.915371 60.915371 0 33.590026 27.324322 60.914348 60.915371 60.914348l243.302305 0c14.950504 0 32.586163 12.123109 32.586163 27.072589l0 250.428609c0 33.591049 27.324322 60.914348 60.914348 60.914348 33.591049 0 60.914348-27.323299 60.914348-60.914348L562.514999 571.382459c0-14.94948 6.609535-27.072589 21.561062-27.072589L828.093657 544.30987c33.590026 0 60.914348-27.324322 60.914348-60.914348 0-33.591049-27.324322-60.915371-60.914348-60.915371L584.077084 422.48015c-14.951527 0-21.561062-12.122085-21.561062-27.073612L562.516022 158.51627c0-33.591049-27.323299-60.915371-60.914348-60.915371-33.590026 0-60.914348 27.324322-60.914348 60.915371l0 236.891292c0 14.950504-17.634636 27.073612-32.586163 27.073612L164.797835 422.481174z" p-id="3286"></path></svg>