<?xml version="1.0" standalone="no"?><!DOCTYPE svg PUBLIC "-//W3C//DTD SVG 1.1//EN" "http://www.w3.org/Graphics/SVG/1.1/DTD/svg11.dtd"><svg t="1489970753766" class="icon" style="" viewBox="0 0 1024 1024" version="1.1" xmlns="http://www.w3.org/2000/svg" p-id="3782" xmlns:xlink="http://www.w3.org/1999/xlink" width="128" height="128"><defs><style type="text/css"></style></defs><path d="M746.601644 419.831834c-97.743138 0-177.26324-79.521125-177.26324-177.26324 0-97.755418 79.520101-177.277566 177.26324-177.277566 97.755418 0 177.290869 79.521125 177.290869 177.277566C923.892513 340.309686 844.357062 419.831834 746.601644 419.831834zM746.601644 121.829719c-66.574255 0-120.725572 54.16462-120.725572 120.738875s54.151317 120.724549 120.725572 120.724549 120.752178-54.150294 120.752178-120.724549S813.174875 121.829719 746.601644 121.829719z" p-id="3783"></path><path d="M681.131537 212.863039c-2.705622 0-5.452175-0.772596-7.867178-2.4017-6.473435-4.348028-8.213056-13.126972-3.865028-19.614733 17.310248-25.784246 46.172599-41.189098 77.202313-41.189098 7.798617 0 14.133905 6.321986 14.133905 14.133905s-6.335289 14.134929-14.133905 14.134929c-21.588691 0-41.673122 10.725272-53.722552 28.683273C690.144818 210.668047 685.686273 212.863039 681.131537 212.863039z" p-id="3784"></path><path d="M266.021238 681.316244c-109.433388 0-198.465121-89.033779-198.465121-198.457958 0-109.447714 89.031732-198.478424 198.465121-198.478424 109.447714 0 198.49275 89.031732 198.49275 198.478424C464.515011 592.282464 375.468952 681.316244 266.021238 681.316244zM266.021238 340.91753c-78.265528 0-141.92643 63.675228-141.92643 141.940756 0 78.258365 63.660902 141.919267 141.92643 141.919267s141.954059-63.660902 141.954059-141.919267C407.97632 404.592758 344.286766 340.91753 266.021238 340.91753z" p-id="3785"></path><path d="M176.051133 496.993215c-7.812943 0-14.134929-6.321986-14.134929-14.134929l-0.068562-3.354398c-0.110517-3.257184-0.12382-5.52176 0.86981-10.738575 1.463328-7.66047 8.847505-12.658298 16.536628-11.222599 7.674796 1.476631 12.69923 8.875135 11.222599 16.549931-0.442068 2.360767-0.442068 2.471284-0.372483 4.458545 0.041956 1.104147 0.082888 2.443655 0.082888 4.306072C190.185039 490.670206 183.84975 496.993215 176.051133 496.993215z" p-id="3786"></path><path d="M191.249277 446.927959c-2.705622 0-5.438872-0.772596-7.868201-2.387373-6.473435-4.348028-8.213056-13.141298-3.865028-19.614733 19.393699-28.918633 51.735291-46.185902 86.506213-46.185902 7.79964 0 14.134929 6.321986 14.134929 14.134929 0 7.812943-6.335289 14.133905-14.134929 14.133905-25.328875 0-48.891524 12.588713-63.026452 33.652448C200.275861 444.732967 195.804013 446.927959 191.249277 446.927959z" p-id="3787"></path><path d="M732.465692 958.707948c-122.103966 0-221.434252-99.328239-221.434252-221.434252s99.329263-221.433228 221.434252-221.433228c122.104989 0 221.461881 99.327216 221.461881 221.433228S854.570681 958.707948 732.465692 958.707948zM732.465692 572.378136c-90.922802 0-164.894538 73.959455-164.894538 164.896584S641.543913 902.170281 732.465692 902.170281c90.937129 0 164.924213-73.959455 164.924213-164.896584S823.402821 572.378136 732.465692 572.378136z" p-id="3788"></path><path d="M633.48333 680.458713c-2.706645 0-5.438872-0.771573-7.854898-2.37407-6.487761-4.361331-8.226359-13.139252-3.879354-19.627013 21.630646-32.274054 57.726749-51.570539 96.582709-51.570539 7.798617 0 14.133905 6.321986 14.133905 14.133905s-6.335289 14.135952-14.133905 14.135952c-29.40061 0-56.731072 14.603603-73.088622 39.035038C642.509914 678.278047 638.038066 680.458713 633.48333 680.458713z" p-id="3789"></path><path d="M409.1214 438.797791 386.787742 386.869095 619.816053 286.684348 642.150734 338.613044Z" p-id="3790"></path><path d="M410.357017 564.958497l154.870067 75.925831-24.888782 50.767009-154.870067-75.925831 24.888782-50.767009Z" p-id="3791"></path></svg>