<?xml version="1.0" standalone="no"?><!DOCTYPE svg PUBLIC "-//W3C//DTD SVG 1.1//EN" "http://www.w3.org/Graphics/SVG/1.1/DTD/svg11.dtd"><svg t="1490627995068" class="icon" style="" viewBox="0 0 1024 1024" version="1.1" xmlns="http://www.w3.org/2000/svg" p-id="2124" xmlns:xlink="http://www.w3.org/1999/xlink" width="128" height="128"><defs><style type="text/css"></style></defs><path d="M540.8 572.8 182.4 572.8c-16 0-28.8 12.8-28.8 28.8 0 16 12.8 28.8 28.8 28.8l361.6 0c16 0 28.8-12.8 28.8-28.8C572.8 585.6 560 572.8 540.8 572.8zM540.8 691.2 182.4 691.2c-16 0-28.8 12.8-28.8 28.8 0 16 12.8 28.8 28.8 28.8l361.6 0c16 0 28.8-12.8 28.8-28.8C572.8 704 560 691.2 540.8 691.2zM873.6 153.6 150.4 153.6C86.4 153.6 32 204.8 32 272l0 480c0 67.2 54.4 118.4 118.4 118.4l720 0c67.2 0 118.4-54.4 118.4-118.4l0-480C992 204.8 937.6 153.6 873.6 153.6zM931.2 752c0 32-25.6 60.8-60.8 60.8L150.4 812.8c-32 0-60.8-25.6-60.8-60.8l0-480c0-32 25.6-60.8 60.8-60.8l720 0c32 0 60.8 25.6 60.8 60.8L931.2 752 931.2 752zM812.8 272l-121.6 0c-32 0-60.8 25.6-60.8 60.8l0 118.4c0 32 25.6 60.8 60.8 60.8l118.4 0c32 0 60.8-25.6 60.8-60.8l0-121.6C873.6 297.6 844.8 272 812.8 272zM812.8 422.4c0 16-12.8 28.8-28.8 28.8l-60.8 0c-16 0-28.8-12.8-28.8-28.8l0-60.8c0-16 12.8-28.8 28.8-28.8l60.8 0c16 0 28.8 12.8 28.8 28.8L812.8 422.4z" p-id="2125"></path></svg>