<?xml version="1.0" standalone="no"?><!DOCTYPE svg PUBLIC "-//W3C//DTD SVG 1.1//EN" "http://www.w3.org/Graphics/SVG/1.1/DTD/svg11.dtd"><svg t="1489970925814" class="icon" style="" viewBox="0 0 1024 1024" version="1.1" xmlns="http://www.w3.org/2000/svg" p-id="4036" xmlns:xlink="http://www.w3.org/1999/xlink" width="128" height="128"><defs><style type="text/css"></style></defs><path d="M798.114878 930.017512c-38.744419 0-75.172073-15.09786-102.551654-42.49279l-199.104687-199.087291L297.3385 887.524722c-27.379581 27.39493-63.807235 42.49279-102.551654 42.49279s-75.1557-15.09786-102.551654-42.49279c-27.395954-27.379581-42.493813-63.807235-42.493813-102.550631 0-38.761815 15.09786-75.173097 42.510186-102.568027l199.070918-199.088314L104.300996 296.278867c-27.395954-27.379581-42.493813-63.807235-42.493813-102.551654s15.09786-75.172073 42.493813-102.551654c27.395954-27.395954 63.807235-42.493813 102.568027-42.493813 38.744419 0 75.172073 15.09786 102.551654 42.493813l187.038884 187.022511 187.039907-187.022511c27.379581-27.395954 63.790862-42.493813 102.551654-42.493813 38.743396 0 75.172073 15.09786 102.551654 42.493813 27.395954 27.379581 42.493813 63.807235 42.493813 102.551654s-15.09786 75.172073-42.493813 102.551654L701.580265 483.317751 900.666532 682.421414c27.395954 27.379581 42.493813 63.790862 42.493813 102.552677 0 38.743396-15.09786 75.17105-42.493813 102.550631C873.286951 914.919652 836.860321 930.017512 798.114878 930.017512zM496.45956 606.049003c8.731872 0 17.463744 3.333932 24.130583 9.998725l223.233224 223.216851c14.515598 14.514575 33.778314 22.496363 54.292534 22.496363s39.776935-7.982812 54.292534-22.496363c14.514575-14.514575 22.496363-33.794687 22.496363-54.29151 0-20.514219-7.982812-39.795355-22.496363-54.275137L629.189537 507.447311c-13.33061-13.331633-13.33061-34.92851 0-48.25912l211.153094-211.169467c14.514575-14.514575 22.496363-33.778314 22.496363-54.29151s-7.982812-39.777959-22.496363-54.292534c-14.515598-14.514575-33.794687-22.496363-54.292534-22.496363-20.514219 0-39.794331 7.981788-54.275137 22.496363L520.589121 350.58675c-13.331633 13.331633-34.92851 13.331633-48.260144 0L261.14416 139.434679c-14.498202-14.514575-33.778314-22.496363-54.276161-22.496363-20.513196 0-39.794331 7.981788-54.29151 22.496363-14.514575 14.514575-22.51376 33.778314-22.51376 54.292534s7.999185 39.777959 22.496363 54.29151l211.152071 211.169467c13.331633 13.33061 13.331633 34.927487 0 48.25912L140.495336 730.680535c-14.497179 14.498202-22.496363 33.779338-22.496363 54.293557 0 20.4958 7.999185 39.776935 22.496363 54.29151 14.514575 14.514575 33.794687 22.496363 54.292534 22.496363 20.513196 0 39.794331-7.982812 54.29151-22.496363l223.25062-223.216851C478.995817 609.382934 487.727689 606.049003 496.45956 606.049003z" p-id="4037"></path></svg>