<?xml version="1.0" standalone="no"?><!DOCTYPE svg PUBLIC "-//W3C//DTD SVG 1.1//EN" "http://www.w3.org/Graphics/SVG/1.1/DTD/svg11.dtd"><svg t="1490041076108" class="icon" style="" viewBox="0 0 1024 1024" version="1.1" xmlns="http://www.w3.org/2000/svg" p-id="6788" xmlns:xlink="http://www.w3.org/1999/xlink" width="128" height="128"><defs><style type="text/css"></style></defs><path d="M640.766712 362.494964c0-71.386864-58.078767-129.464607-129.464607-129.464607-71.386864 0-129.464607 58.077743-129.464607 129.464607s58.077743 129.464607 129.464607 129.464607C582.687946 491.959571 640.766712 433.881828 640.766712 362.494964z" p-id="6789"></path><path d="M829.65164 195.676611C744.998635 111.023606 632.445186 64.402799 512.727571 64.402799c-119.718639 0-232.272088 46.62183-316.925093 131.274836C111.148449 280.33064 64.527642 392.884089 64.527642 512.602727c0 119.717615 46.62183 232.272088 131.274836 316.925093 84.654029 84.655052 197.207477 131.275859 316.925093 131.275859 119.717615 0 232.272088-46.620807 316.925093-131.275859 84.655052-84.653005 131.275859-197.207477 131.275859-316.925093C960.927499 392.884089 914.306692 280.33064 829.65164 195.676611zM732.97581 764.003478c-11.04966 0-20.008706-8.959046-20.008706-20.008706 0-111.199615-90.466408-201.666022-201.664999-201.666022S309.637106 632.795157 309.637106 743.994772c0 11.04966-8.958022 20.008706-20.008706 20.008706-11.050684 0-20.008706-8.959046-20.008706-20.008706 0-107.011222 69.916373-197.986213 166.462243-229.684146-55.807027-27.76332-94.262874-85.36932-94.262874-151.816684 0-93.452415 76.029604-169.483042 169.483042-169.483042 93.452415 0 169.483042 76.029604 169.483042 169.483042 0 66.446341-38.455847 124.052341-94.262874 151.816684 96.54587 31.697933 166.462243 122.6719 166.462243 229.684146C752.984516 755.044432 744.025471 764.003478 732.97581 764.003478z" p-id="6790"></path></svg>