<?xml version="1.0" standalone="no"?><!DOCTYPE svg PUBLIC "-//W3C//DTD SVG 1.1//EN" "http://www.w3.org/Graphics/SVG/1.1/DTD/svg11.dtd"><svg t="1490040813992" class="icon" style="" viewBox="0 0 1024 1024" version="1.1" xmlns="http://www.w3.org/2000/svg" p-id="6665" xmlns:xlink="http://www.w3.org/1999/xlink" width="128" height="128"><defs><style type="text/css"></style></defs><path d="M844.963371 247.282966 669.175739 247.282966l0-45.49824c0-39.913035-32.470529-72.383564-72.383564-72.383564L427.207825 129.401162c-39.913035 0-72.383564 32.470529-72.383564 72.383564l0 45.49824L179.035606 247.282966c-62.71946 0-113.7456 51.02614-113.7456 113.7456l0 419.824671c0 62.71946 51.02614 113.7456 113.7456 113.7456l665.927765 0c62.71946 0 113.7456-51.02614 113.7456-113.7456L958.708971 361.028567C958.708971 298.308083 907.682831 247.282966 844.963371 247.282966zM214.840066 288.645003l594.966597 0 0 564.591799L214.840066 853.236801 214.840066 288.645003zM396.186298 201.784726c0-17.105586 13.915941-31.021527 31.021527-31.021527l169.58435 0c17.105586 0 31.021527 13.915941 31.021527 31.021527l0 45.49824L396.186298 247.282966 396.186298 201.784726zM106.652042 780.853238 106.652042 361.028567c0-38.040385 29.502941-69.298296 66.824965-72.149227l0 564.123125C136.154983 850.151533 106.652042 818.893622 106.652042 780.853238zM917.346935 780.853238c0 37.820374-29.163203 68.940139-66.179258 72.100108L851.167676 288.928459c37.016055 3.15997 66.179258 34.279734 66.179258 72.099085L917.346935 780.853238z" p-id="6666"></path></svg>