<?xml version="1.0" standalone="no"?><!DOCTYPE svg PUBLIC "-//W3C//DTD SVG 1.1//EN" "http://www.w3.org/Graphics/SVG/1.1/DTD/svg11.dtd"><svg class="icon" width="128px" height="128.00px" viewBox="0 0 1024 1024" version="1.1" xmlns="http://www.w3.org/2000/svg"><path d="M413.135681 901.833075H162.168077v-42.010015a55.376838 55.376838 0 0 1 33.679684-50.948534L262.380853 780.541571a65.013646 65.013646 0 0 1 51.030445 0.03686l66.119443 28.270498a55.376838 55.376838 0 0 1 33.605964 50.916793v42.067353z" fill="#c3e3fa" /><path d="M370.300414 898.053914H203.475707V805.626762l84.42856-30.283456 82.396147 30.283456z" fill="#c3e3fa" /><path d="M427.272465 915.956549H148.03334v-56.131441a69.420449 69.420449 0 0 1 42.276225-63.955973l66.538212-28.321692c19.729246-8.39586 42.374518-8.376406 62.103764 0.038907l66.144016 28.282785a69.404067 69.404067 0 0 1 42.177932 63.896587v56.190827z m-250.975794-28.262307h222.713488v-27.927496a41.177596 41.177596 0 0 0-25.030925-37.920617l-66.124562-28.282784c-12.693106-5.439903-27.277329-5.439903-39.930504-0.019454l-66.538211 28.321692a41.181692 41.181692 0 0 0-25.089286 37.959525v27.869134z" fill="#108ee9" /><path d="M217.612491 738.720975s-50.385397 10.648407-91.257875-47.688483c-40.872478-58.33689-13.758971-221.358888-5.665157-243.334538s36.01619-74.718032 92.266402-94.697106 63.938567-1.9976 92.266402-2.396916c28.327835-0.399315 28.327835-3.19657 49.775161-1.598285s57.46454 27.969475 79.316301 59.135521c21.852784 31.166045 30.755467 74.318716 33.588558 114.675157s1.618763 91.500536-3.237525 121.866926c-4.856288 30.367415-28.327835 71.122146-70.413618 89.902251 0 0-11.159326 6.39314-40.700466 7.191771" fill="#c3e3fa" /><path d="M268.50164 344.312157s-64.586686-2.736845-106.333563 35.556466-49.473115 105.16019-49.473115 105.16019-13.436447 113.889836-5.226934 149.222071c8.209513 35.332235 22.415921 63.655975 31.601196 72.512582 9.185275 8.856608 33.266034 27.181084 33.266034 27.181084l36.020286 5.530005-8.08767-15.356232s-5.400995-3.111588-12.072632-11.435775c-8.766506-10.939191-19.727199-30.879358-23.507383-64.587711-6.656278-59.359752-8.97845-86.995441-2.519782-110.523301s0-80.738477 31.355464-130.533092c39.072488-62.049498 88.353112-52.707569 103.826068-54.296639 15.475003-1.58907-16.377046-7.058665-28.847969-8.429648z" fill="#c3e3fa" /><path d="M164.687859 627.570032m-35.528821 0a35.528821 35.528821 0 1 0 71.057642 0 35.528821 35.528821 0 1 0-71.057642 0Z" fill="#c3e3fa" /><path d="M164.687859 677.220279c-27.375622 0-49.666629-22.271554-49.666629-49.647175s22.291007-49.666629 49.666629-49.66663 49.666629 22.291007 49.666629 49.66663c0 27.375622-22.291007 49.647176-49.666629 49.647175z m0-71.051498c-11.805398 0-21.404323 9.597901-21.404323 21.404323 0 11.785944 9.597901 21.384869 21.404323 21.384869 11.805398 0 21.404323-9.597901 21.404323-21.384869 0-11.805398-9.598925-21.404323-21.404323-21.404323zM384.424912 915.956549h-195.080871V805.624714h28.262307v82.069528H356.161582v-82.069528h28.26333z" fill="#108ee9" /><path d="M411.119651 627.570032m-35.528821 0a35.528821 35.528821 0 1 0 71.057641 0 35.528821 35.528821 0 1 0-71.057641 0Z" fill="#c3e3fa" /><path d="M411.110436 677.220279c-27.375622 0-49.647176-22.271554-49.647176-49.647175s22.271554-49.666629 49.647176-49.66663 49.666629 22.291007 49.666629 49.66663c0.001024 27.375622-22.289984 49.647176-49.666629 49.647175z m0-71.051498c-11.785944 0-21.384869 9.597901-21.384869 21.404323 0 11.785944 9.597901 21.384869 21.384869 21.384869 11.805398 0 21.404323-9.597901 21.404322-21.384869 0-11.805398-9.597901-21.404323-21.404322-21.404323z" fill="#108ee9" /><path d="M306.503144 826.744397h-37.197754a0.802726 0.802726 0 0 1-0.802726-0.802726V685.937639c0-0.443342 0.359384-0.802726 0.802726-0.802726h37.197754c0.443342 0 0.802726 0.359384 0.802726 0.802726v140.004032a0.802726 0.802726 0 0 1-0.802726 0.802726z" fill="#c3e3fa" /><path d="M291.476603 840.884253h-7.153887c-16.516294 0-29.957861-13.441567-29.957861-29.977315V700.969299c0-16.516294 13.441567-29.957861 29.957861-29.95786h7.153887c16.516294 0 29.957861 13.441567 29.95786 29.95786v109.937639c0 16.535748-13.441567 29.977315-29.95786 29.977315z m-7.154911-141.609484c-0.94607 0-1.69453 0.749484-1.69453 1.69453v109.937639a1.69965 1.69965 0 0 0 1.69453 1.715008h7.153887a1.69965 1.69965 0 0 0 1.69453-1.715008V700.969299c0-0.94607-0.74846-1.69453-1.69453-1.69453h-7.153887z" fill="#108ee9" /><path d="M287.904267 760.727343c-68.05049 0-123.216408-55.165917-123.216408-123.215384l-2.519782-105.952678 20.302622-18.540515 46.142416-8.429648 6.830339 34.386165 32.313821-15.626538 44.82058-14.595485 41.259507-29.901547 23.486906 38.920952 33.795383 15.02347v104.716848c0 68.048443-55.164894 123.21436-123.215384 123.21436z" fill="#FFFFFF" /><path d="M164.687859 584.035452c-7.805078 0-14.131665-6.326587-14.131665-14.131665v-37.013455c0-12.397204 11.56888-23.729566 34.392308-33.682755 12.37775-5.399971 42.709329-16.418001 57.175804-2.976435 2.542307 2.365175 7.509175 8.336474 6.307134 18.171917 8.572992-4.257315 19.827539-7.883917 33.919273-10.978099 48.720559-10.701649 59.048491-34.589918 59.46214-35.614827 2.482922-6.051162 8.92828-9.854896 15.333707-8.73067 6.464812 1.024909 11.451133 6.208841 11.943622 12.732014 3.034796 40.305246 39.655079 46.395316 43.833555 46.966644 7.686307 1.044363 13.145664 8.099957 12.160686 15.806741-0.984978 7.726239-8.001664 13.362727-15.687971 12.220072-17.127554-2.088726-46.730126-13.895148-60.842338-43.301134-12.041915 10.268546-30.923385 21.10842-60.132785 27.513846-20.812517 4.572672-29.169469 9.224183-32.244197 11.529973 1.261427 3.724895 0.984978 7.883917-0.984978 11.431679-2.798279 5.045707-8.39586 7.98221-14.033372 7.23375-2.148111-0.255971-13.185595-2.128658-19.985217-13.106756-4.926936-7.962756-5.932392-17.974307-2.976435-29.879021-12.239525 1.832755-33.505623 10.722127-39.37863 17.166461v34.511079c0.001024 7.804054-6.325564 14.130641-14.130641 14.130641z" fill="#108ee9" /><path d="M353.540435 755.919177c-7.626922 0-13.914602-6.070616-14.131665-13.737469-0.19761-7.805078 5.951845-14.308797 13.73747-14.525861 24.517958-0.669621 34.332923-5.459357 34.432239-5.518742 37.584783-16.812197 58.871358-52.997328 63.128674-79.683876 4.61158-28.736366 5.912938-78.639512 3.094181-118.648855-3.25186-46.612379-13.697538-82.797511-31.061609-107.532532-20.320028-29.031245-53.076167-52.012351-68.784616-53.175485-10.879805-0.788392-15.156574-0.41365-22.251076 0.236518-5.991777 0.551874-13.283888 1.221495-26.292351 1.399651-11.589358-0.217064-19.33505-1.970979-26.725455-3.843666-13.776377-3.488377-26.765386-6.720783-61.000016 5.420449-58.142352 20.635385-81.280113 79.62449-83.724127 86.266435-8.218728 22.271554-32.559553 178.229766 3.961413 230.359863 34.609372 49.391204 75.229974 42.276225 76.885596 41.920937 7.666853-1.320812 15.057258 3.488377 16.57568 11.076392 1.536852 7.607468-3.271314 14.998896-10.859328 16.595133-2.404083 0.53242-60.033468 11.864783-105.739709-53.391524-46.218184-65.946406-14.506407-236.884061-7.351497-256.317405 2.917049-7.922825 30.529189-78.185931 100.792296-103.138016 42.295679-14.979442 60.921177-10.327931 77.358631-6.188363 6.563105 1.655623 12.614267 3.055274 19.433344 2.976434 11.943622-0.157678 18.625498-0.768938 24.104308-1.28088 7.666853-0.709553 13.756923-1.261427 26.923065-0.276449 26.154127 1.951525 65.611596 30.56912 89.834674 65.13856 20.339482 28.992337 32.480714 69.967204 36.107316 121.782969 2.995888 42.572128 1.615691 93.992673-3.37063 125.073735-5.617035 35.101861-32.086518 79.8221-78.599581 100.59571-1.123202 0.709553-14.6047 7.548083-46.079959 8.415313l-0.397268 0.001024z" fill="#c3e3fa" /><path d="M287.909386 774.859008c-75.741917 0-137.353192-61.610252-137.353192-137.353193v-102.053722c0-7.805078 6.326587-14.131665 14.131665-14.131665s14.131665 6.326587 14.131665 14.131665v102.053722c0 60.152239 48.937623 109.089862 109.089862 109.089862s109.070408-48.937623 109.070408-109.089862l-0.669621-101.955429c-0.039932-7.805078 6.228294-14.170573 14.033373-14.229958h0.098293c7.765146 0 14.07228 6.267202 14.131665 14.033372l0.669621 102.053722c-0.001024 75.841234-61.611276 137.451485-137.333739 137.451486z" fill="#c3e3fa" /><path d="M353.540435 755.919177c-7.626922 0-13.914602-6.070616-14.131665-13.737469-0.19761-7.805078 5.951845-14.308797 13.73747-14.525861 24.517958-0.669621 34.332923-5.459357 34.432239-5.518742 37.584783-16.812197 58.871358-52.997328 63.128674-79.683876 4.61158-28.736366 5.912938-78.639512 3.094181-118.648855-3.25186-46.612379-13.697538-82.797511-31.061609-107.532532-20.320028-29.031245-53.076167-52.012351-68.784616-53.175485-10.879805-0.788392-15.156574-0.41365-22.251076 0.236518-5.991777 0.551874-13.283888 1.221495-26.292351 1.399651-11.589358-0.217064-19.33505-1.970979-26.725455-3.843666-13.776377-3.488377-26.765386-6.720783-61.000016 5.420449-31.061609 11.037484-51.992897 33.386853-64.074743 50.179596-4.553218 6.346041-13.422113 7.765146-19.708769 3.232406-6.346041-4.553218-7.785624-13.382181-3.232406-19.708768 20.714224-28.794727 47.518518-49.666629 77.555218-60.329372 42.295679-14.979442 60.921177-10.327931 77.358632-6.188362 6.563105 1.655623 12.614267 3.055274 19.433343 2.976434 11.943622-0.157678 18.625498-0.768938 24.104308-1.28088 7.666853-0.709553 13.756923-1.261427 26.923065-0.276449 26.154127 1.951525 65.611596 30.56912 89.834674 65.13856 20.339482 28.992337 32.480714 69.967204 36.107316 121.782968 2.995888 42.572128 1.615691 93.992673-3.37063 125.073736-5.617035 35.101861-32.086518 79.8221-78.599581 100.595709-1.123202 0.709553-14.6047 7.548083-46.079959 8.415314l-0.396244-0.001024zM207.870223 753.59291c-19.945286 0-59.698658-6.780169-93.086535-54.456365-35.042475-50.002464-24.202601-159.250004-17.915945-203.910858 1.103748-7.705761 8.218728-13.12621 15.96442-12.022462 7.726239 1.084295 13.106756 8.238181 12.022461 15.96442-9.361384 66.459373-10.839874 149.631625 13.066825 183.767962 34.609372 49.391204 75.229974 42.276225 76.885597 41.920937 7.666853-1.320812 15.057258 3.488377 16.575679 11.076392 1.536852 7.607468-3.271314 14.998896-10.859328 16.595133-0.650167 0.138225-5.301678 1.064841-12.653174 1.064841z" fill="#108ee9" /><path d="M189.63892 725.961316a14.108116 14.108116 0 0 1-11.274001-5.597581c-18.191371-24.006015-27.809749-52.662518-27.809749-82.856896v-102.053722c0-7.805078 6.326587-14.131665 14.131665-14.131665s14.131665 6.326587 14.131665 14.131665v102.053722c0 23.985538 7.626922 46.730126 22.05449 65.788728 4.710896 6.228294 3.488377 15.077735-2.719439 19.787608-2.561761 1.932072-5.55765 2.878142-8.514631 2.878141zM287.909386 774.859008c-20.714224 0-40.640056-4.513287-59.225623-13.382181a138.605404 138.605404 0 0 1-17.915945-10.307454l-3.192474-2.246404c-6.346041-4.53274-7.805078-13.343274-3.271314-19.708769 4.553218-6.307134 13.32382-7.7846 19.708769-3.271314l2.6406 1.852209c4.553218 3.094181 9.322476 5.853552 14.229958 8.178796 14.722447 7.055594 30.548643 10.62281 47.026029 10.62281 60.152239 0 109.070408-48.937623 109.070408-109.089862l-0.669621-101.955429c-0.039932-7.805078 6.228294-14.170573 14.033373-14.229958h0.098293c7.765146 0 14.07228 6.267202 14.131665 14.033372l0.669621 102.053722c-0.001024 75.84021-61.611276 137.450462-137.333739 137.450462z" fill="#108ee9" /><path d="M851.490681 890.630745H600.523077v-42.010015a55.376838 55.376838 0 0 1 33.679684-50.948533l66.533093-28.332955a65.013646 65.013646 0 0 1 51.030444 0.03686l66.118419 28.270498a55.376838 55.376838 0 0 1 33.605964 50.916793v42.067352z" fill="#c3e3fa" /><path d="M808.655415 886.850561H641.830707v-92.427152l84.42856-30.282433 82.396148 30.282433z" fill="#c3e3fa" /><path d="M865.622346 904.762411H586.384245v-56.150895c0-27.888588 16.595133-52.977874 42.276225-63.93652l66.538212-28.342169c19.729246-8.356952 42.393972-8.39586 62.123218 0.059385l66.124562 28.263331a69.431712 69.431712 0 0 1 42.177932 63.917065v56.189803z m-250.975794-28.263331h222.713488v-27.927496a41.182716 41.182716 0 0 0-25.030925-37.940071l-66.124562-28.26333c-12.633721-5.420449-27.217944-5.420449-39.930504-0.019454l-66.538211 28.321692a41.184763 41.184763 0 0 0-25.089286 37.940071v27.888588z" fill="#108ee9" /><path d="M655.967492 727.517622s-50.386421 10.648407-91.257875-47.688483c-40.872478-58.33689-13.758971-221.358888-5.665158-243.334538 8.093813-21.975651 36.01619-74.718032 92.266402-94.697106 56.250212-19.97805 63.938567-1.9976 92.266402-2.396916 28.327835-0.399315 28.327835-3.19657 49.775162-1.598285 21.44835 1.598285 57.46454 27.969475 79.3163 59.135521 21.852784 31.166045 30.755467 74.318716 33.588558 114.675156s1.618763 91.500536-3.237525 121.866927c-4.856288 30.367415-28.327835 71.122146-70.413618 89.902251 0 0-11.159326 6.39314-40.700465 7.191771" fill="#c3e3fa" /><path d="M706.85664 333.109828s-64.586686-2.736845-106.333563 35.556465c-41.746876 38.293311-49.473115 105.16019-49.473115 105.16019s-13.436447 113.889836-5.226934 149.222072c8.209513 35.332235 22.415921 63.655975 31.601196 72.512582 9.185275 8.856608 33.266034 27.181084 33.266035 27.181084l36.020285 5.530005-8.08767-15.356233s-5.400995-3.111588-12.072632-11.435775c-8.766506-10.939191-19.727199-30.879358-23.507383-64.58771-6.656278-59.359752-8.97845-86.994417-2.519782-110.523301 6.458669-23.527861 0-80.738477 31.355465-130.533093 39.072488-62.049498 88.353112-52.707569 103.826067-54.296638 15.475003-1.590094-16.377046-7.059689-28.847969-8.429648z" fill="#c3e3fa" /><path d="M603.042859 616.366679m-35.528821 0a35.528821 35.528821 0 1 0 71.057642 0 35.528821 35.528821 0 1 0-71.057642 0Z" fill="#c3e3fa" /><path d="M603.03774 666.025117c-27.375622 0-49.647176-22.291007-49.647176-49.666629 0-27.375622 22.271554-49.647176 49.647176-49.647176s49.666629 22.271554 49.666629 49.647176c0.001024 27.375622-22.289984 49.666629-49.666629 49.666629z m0-71.051498c-11.785944 0-21.383845 9.597901-21.383845 21.383845 0 11.805398 9.597901 21.404323 21.383845 21.404323 11.805398 0 21.404323-9.597901 21.404322-21.404323 0-11.78492-9.597901-21.383845-21.404322-21.383845zM822.795271 904.762411h-195.101349V794.430576h28.263331v82.068504h138.574687v-82.068504h28.263331z" fill="#108ee9" /><path d="M849.474651 616.366679m-35.528821 0a35.528821 35.528821 0 1 0 71.057642 0 35.528821 35.528821 0 1 0-71.057642 0Z" fill="#c3e3fa" /><path d="M849.480794 666.025117c-27.375622 0-49.666629-22.291007-49.666629-49.666629 0-27.375622 22.291007-49.647176 49.666629-49.647176 27.375622 0 49.647176 22.271554 49.647176 49.647176s-22.27053 49.666629-49.647176 49.666629z m0-71.051498c-11.805398 0-21.404323 9.597901-21.404323 21.383845 0 11.805398 9.597901 21.404323 21.404323 21.404323 11.785944 0 21.384869-9.597901 21.384869-21.404323 0-11.78492-9.598925-21.383845-21.384869-21.383845z" fill="#108ee9" /><path d="M744.858144 815.542067h-37.197754a0.802726 0.802726 0 0 1-0.802726-0.802726V674.734286c0-0.443342 0.359384-0.802726 0.802726-0.802726h37.197754c0.443342 0 0.802726 0.359384 0.802726 0.802726v140.004031a0.80375 0.80375 0 0 1-0.802726 0.80375z" fill="#c3e3fa" /><path d="M729.826483 829.670661H722.69205c-16.516294 0-29.957861-13.441567-29.95786-29.957861V689.755707c0-16.516294 13.441567-29.957861 29.95786-29.95786h7.134433c16.516294 0 29.957861 13.441567 29.957861 29.95786v109.957093c0 16.516294-13.441567 29.957861-29.957861 29.957861zM722.69205 688.060153c-0.94607 0-1.69453 0.749484-1.69453 1.69453v109.957093c0 0.94607 0.74846 1.69453 1.69453 1.69453h7.134433c0.94607 0 1.69453-0.749484 1.694531-1.69453V689.755707c0-0.94607-0.749484-1.69453-1.694531-1.69453H722.69205z" fill="#108ee9" /><path d="M726.259267 749.523989c-68.05049 0-123.216408-55.165917-123.216408-123.215384l-2.519782-105.952677 20.302623-18.540515 46.142416-8.429648 6.830339 34.386165 32.31382-15.626538 44.820581-14.595486 41.259506-29.901547 23.486906 38.920953 33.795383 15.02347v104.716847c0 68.048443-55.164894 123.21436-123.215384 123.21436z" fill="#FFFFFF" /><path d="M603.03774 572.820836c-7.805078 0-14.131665-6.326587-14.131665-14.131665v-37.013455c0-12.397204 11.56888-23.729566 34.411761-33.682755 12.337818-5.361064 42.650967-16.476363 57.156351-2.955957 2.542307 2.345721 7.509175 8.336474 6.307133 18.171917 8.59347-4.276769 19.827539-7.883917 33.959205-10.978099 48.681652-10.701649 59.009583-34.609372 59.423233-35.634281 2.482922-6.051162 8.908826-9.854896 15.333706-8.73067 6.464812 1.024909 11.451133 6.208841 11.943623 12.732014 3.034796 40.3247 39.674532 46.41477 43.833554 46.986098 7.705761 1.044363 13.166141 8.099957 12.18014 15.806741-1.005455 7.726239-8.080503 13.32382-15.688995 12.220072-17.127554-2.088726-46.74958-13.895148-60.861791-43.301135-12.041915 10.268546-30.903931 21.10842-60.113332 27.513847-20.812517 4.553218-29.150015 9.203705-32.244196 11.510519 1.261427 3.724895 0.984978 7.883917-0.984978 11.431679-2.778825 5.045707-8.39586 7.98221-14.033372 7.23375-2.148111-0.255971-13.205049-2.148111-20.004672-13.106756-4.926936-7.962756-5.932392-17.974307-2.976434-29.859568-12.220071 1.832755-33.48617 10.722127-39.37863 17.147008v34.511079c0.001024 7.80303-6.325564 14.129617-14.130641 14.129617z" fill="#108ee9" /><path d="M791.910794 744.704561c-7.627946 0-13.914602-6.09007-14.131665-13.756923-0.19761-7.805078 5.951845-14.289344 13.756923-14.506407 24.47905-0.650167 34.274561-5.459357 34.372854-5.499288 37.60526-16.831651 58.890812-52.997328 63.148128-79.683876 4.61158-28.696434 5.912938-78.599581 3.113635-118.668309-3.291791-46.631833-13.737469-82.817988-31.081063-107.532532-20.320028-29.011791-53.077191-51.992897-68.784616-53.155007-10.899259-0.847777-15.176028-0.394196-22.310461 0.236517-5.972323 0.53242-13.244981 1.202041-26.213512 1.399652-10.012575 0.078839-19.314573-1.951525-26.765387-3.843666-13.776377-3.488377-26.78484-6.740237-60.979538 5.420449-58.142352 20.654839-81.280113 79.605036-83.724127 86.24698-8.218728 22.271554-32.559553 178.24922 3.961412 230.359864 34.589918 49.37175 75.151135 42.256771 76.924505 41.941415 7.489721-1.280881 15.037804 3.488377 16.555202 11.095845 1.517398 7.588014-3.271314 14.979442-10.859328 16.575679-2.42456 0.53242-60.0734 11.805398-105.759163-53.412001-46.218184-65.946406-14.506407-236.884061-7.351497-256.317405 2.917049-7.922825 30.509735-78.166477 100.792296-103.118563 42.295679-15.037804 60.921177-10.327931 77.358631-6.188362 6.563105 1.655623 12.71256 3.134113 19.452798 2.976434 11.884237-0.177132 18.566113-0.788392 24.044923-1.28088 7.686307-0.690099 13.718016-1.241973 26.961972-0.276449 26.154127 1.951525 65.611596 30.548643 89.833651 65.119106 20.320028 28.972883 32.480714 69.94775 36.126769 121.782969 2.976435 42.611036 1.576783 94.071512-3.390084 125.094213-5.617035 35.101861-32.086518 79.802646-78.599581 100.575232-1.103748 0.709553-14.564769 7.56856-46.079959 8.415313h-0.373718z" fill="#c3e3fa" /><path d="M726.259267 763.66487c-75.741917 0-137.353192-61.610252-137.353192-137.353193v-102.053722c0-7.805078 6.326587-14.131665 14.131665-14.131665s14.131665 6.326587 14.131665 14.131665v102.053722c0 60.152239 48.937623 109.089862 109.089862 109.089862s109.089862-48.937623 109.089862-109.089862l-0.690099-101.955429c-0.039932-7.805078 6.228294-14.170573 14.033372-14.229958h0.098293c7.765146 0 14.07228 6.267202 14.131666 14.033372l0.690098 102.053722c0 75.84021-61.610252 137.451485-137.353192 137.451486z" fill="#c3e3fa" /><path d="M791.910794 744.704561c-7.627946 0-13.914602-6.09007-14.131665-13.756923-0.19761-7.805078 5.951845-14.289344 13.756923-14.506407 24.47905-0.650167 34.274561-5.459357 34.372854-5.499288 37.60526-16.831651 58.890812-52.997328 63.148128-79.683876 4.61158-28.696434 5.912938-78.599581 3.113635-118.668309-3.291791-46.631833-13.737469-82.817988-31.081063-107.532532-20.320028-29.011791-53.077191-51.992897-68.784616-53.155007-10.899259-0.847777-15.176028-0.394196-22.310461 0.236517-5.972323 0.53242-13.244981 1.202041-26.213512 1.399652-10.012575 0.078839-19.314573-1.951525-26.765387-3.843666-13.776377-3.488377-26.78484-6.740237-60.979538 5.420449-31.081063 11.037484-51.992897 33.386853-64.074744 50.179596-4.553218 6.346041-13.402659 7.7846-19.708768 3.232406-6.346041-4.553218-7.785624-13.382181-3.232406-19.708769 14.427568-20.083511 39.595693-46.828419 77.555218-60.329371 42.295679-14.998896 60.921177-10.327931 77.358631-6.188363 6.563105 1.655623 12.71256 3.134113 19.452798 2.976435 11.884237-0.177132 18.566113-0.768938 24.044923-1.280881 7.686307-0.690099 13.718016-1.241973 26.961972-0.276449 26.154127 1.951525 65.611596 30.548643 89.833651 65.119107 20.320028 28.972883 32.480714 69.94775 36.126769 121.782968 2.976435 42.611036 1.576783 94.071512-3.390084 125.094214-5.617035 35.101861-32.086518 79.802646-78.599581 100.575231-1.103748 0.709553-14.564769 7.56856-46.079959 8.415314-0.117747-0.002048-0.255971-0.002048-0.373718-0.002048zM646.260035 742.398771c-19.945286 0-59.719135-6.780169-93.125442-54.475818-35.042475-50.002464-24.202601-159.250004-17.915945-203.910858 1.103748-7.726239 8.139888-13.145664 15.964419-12.022462 7.726239 1.084295 13.106756 8.238181 12.022462 15.96442-9.361384 66.459373-10.839874 149.631625 13.066824 183.767962 34.589918 49.37175 75.151135 42.256771 76.924505 41.941415 7.489721-1.280881 15.037804 3.488377 16.555202 11.095845 1.517398 7.588014-3.271314 14.979442-10.859328 16.575679-0.649143 0.137201-5.300654 1.063817-12.632697 1.063817z" fill="#108ee9" /><path d="M627.989825 714.766154c-4.276769 0-8.51463-1.931048-11.293455-5.597581-18.171917-24.025469-27.790295-52.681972-27.790295-82.856896v-102.053722c0-7.805078 6.326587-14.131665 14.131665-14.131665s14.131665 6.326587 14.131665 14.131665v102.053722c0 23.966084 7.626922 46.730126 22.073944 65.788728 4.690419 6.228294 3.468923 15.097189-2.739917 19.808085-2.561761 1.911594-5.55765 2.857664-8.513607 2.857664zM726.259267 763.66487c-20.733678 0-40.65951-4.513287-59.225623-13.422113-6.09007-2.897595-12.120754-6.366519-17.876014-10.249092l-3.37063-2.384629c-6.28768-4.632057-7.647399-13.46102-3.034796-19.7487 4.632057-6.307134 13.481498-7.686307 19.7487-3.034796l2.5034 1.773369a110.298047 110.298047 0 0 0 14.229958 8.159342c14.741901 7.076071 30.56912 10.643288 47.026029 10.643288 60.152239 0 109.089862-48.937623 109.089862-109.089862l-0.690099-101.955429c-0.039932-7.805078 6.228294-14.170573 14.033372-14.229958h0.098293c7.765146 0 14.07228 6.267202 14.131666 14.033372l0.690098 102.053722c-0.001024 75.84021-61.611276 137.451485-137.354216 137.451486z" fill="#108ee9" /><path d="M318.103764 186.364535c-23.217624 0-42.118547-18.900923-42.118546-42.138 0-23.217624 18.900923-42.118547 42.118546-42.118547 23.217624 0 42.118547 18.900923 42.118547 42.118547 0 23.237077-18.901947 42.138001-42.118547 42.138z m0-55.993217c-7.647399 0-13.855216 6.208841-13.855216 13.855217s6.208841 13.875694 13.855216 13.875694c7.647399 0 13.855216-6.228294 13.855217-13.875694s-6.208841-13.855216-13.855217-13.855217z" fill="#c3e3fa" /><path d="M826.582623 243.403139m-18.052122 0a18.052122 18.052122 0 1 0 36.104244 0 18.052122 18.052122 0 1 0-36.104244 0Z" fill="#c3e3fa" /><path d="M528.514246 64.891804c-3.416705 14.106068-13.190715 33.262963-33.10426 37.564305-2.572 0.55597-2.589406 4.650487-0.039931 5.301678 12.915289 3.298959 27.380741 13.072968 32.905626 34.443502 0.695218 2.689747 4.501 2.710224 5.407139 0.082935 3.928648-11.384581 13.166141-27.890636 34.392308-33.799478 2.500328-0.696242 2.828995-4.12933 0.487369-5.248436-10.259331-4.905435-27.827155-12.247716-34.660566-38.27181-0.69829-2.666197-4.738541-2.750156-5.387685-0.072696zM162.227463 247.347145c-2.552546 10.53578-9.851825 24.843554-24.724783 28.055482-1.920809 0.414674-1.934119 3.473019-0.029693 3.960388 9.646024 2.464492 20.450062 9.764794 24.576319 25.725119 0.51911 2.008863 3.361416 2.024221 4.039228 0.062457 2.934455-8.503368 9.833395-20.830947 25.687235-25.243893 1.867567-0.520134 2.113299-3.083943 0.363479-3.920456-7.661734-3.663462-20.783848-9.147391-25.886892-28.584831-0.523205-1.992481-3.540595-2.054938-4.024893-0.054266zM688.038652 943.660838H328.476747V883.472763c0-31.803926 18.992049-60.533124 48.252643-72.993809l95.3227-40.592957a93.138752 93.138752 0 0 1 73.111556 0.053242l94.728846 40.502855c29.204281 12.486282 48.147184 41.187835 48.147184 72.948758v60.269986z" fill="#c3e3fa" /><path d="M626.667989 938.245509H387.657318V805.824372l120.961813-43.386117 118.048858 43.386117z" fill="#c3e3fa" /><path d="M356.611068 805.626762h24.486217v138.034076h-24.486217z" fill="#FFFFFF" /><path d="M688.043771 957.79967H328.470603c-7.805078 0-14.131665-6.326587-14.131665-14.131665v-60.191146a93.354792 93.354792 0 0 1 56.860448-86.010463l95.313485-40.580671c26.765386-11.35284 57.471707-11.411202 84.197161 0.059385l94.742157 40.501832a93.391652 93.391652 0 0 1 56.723247 85.951077v60.269986c0 7.805078-6.326587 14.131665-14.131665 14.131665z m-345.441502-28.26333h331.309837v-46.139344a65.14368 65.14368 0 0 0-39.57624-59.975107l-94.721679-40.501832c-19.708769-8.415313-42.315133-8.39586-62.024925-0.039932l-95.313485 40.601149a65.08839 65.08839 0 0 0-39.674532 59.994561v46.060505z" fill="#c3e3fa" /><path d="M688.043771 957.79967H464.995473c-7.805078 0-14.131665-6.326587-14.131666-14.131665s6.326587-14.131665 14.131666-14.131665h208.916633v-46.139344a65.14368 65.14368 0 0 0-39.57624-59.975107l-94.721679-40.501832c-19.708769-8.415313-42.315133-8.39586-62.024925-0.039932l-17.994785 7.666854c-7.174364 3.034796-15.471931-0.255971-18.526181-7.44979-3.074728-7.174364 0.276449-15.471931 7.44979-18.526181l17.994785-7.666853c26.765386-11.391748 57.471707-11.43168 84.197161 0.039931l94.742157 40.501832a93.391652 93.391652 0 0 1 56.723247 85.951078v60.269985c0 7.806102-6.326587 14.132689-14.131665 14.132689zM332.076727 615.747228c-35.851345 0-65.020814-29.169469-65.020813-65.020813 0-35.870798 29.169469-65.040267 65.020813-65.040268 35.870798 0 65.040267 29.169469 65.040268 65.040268 0 35.851345-29.169469 65.020814-65.040268 65.020813z m0-101.79775c-20.260643 0-36.757483 16.49684-36.757483 36.776937 0 20.260643 16.49684 36.757483 36.757483 36.757483 20.281121 0 36.776937-16.49684 36.776937-36.757483 0.001024-20.280097-16.495816-36.776937-36.776937-36.776937zM387.657318 957.79967c-7.805078 0-14.131665-6.326587-14.131665-14.131665v-135.736477c0-7.805078 6.326587-14.131665 14.131665-14.131666s14.131665 6.326587 14.131666 14.131666v135.736477c-0.001024 7.805078-6.327611 14.131665-14.131666 14.131665z" fill="#108ee9" /><path d="M626.669013 957.79967c-7.805078 0-14.131665-6.326587-14.131665-14.131665v-137.845681c0-7.805078 6.326587-14.131665 14.131665-14.131665s14.131665 6.326587 14.131665 14.131665v137.845681c0 7.805078-6.326587 14.131665-14.131665 14.131665zM685.146176 615.747228c-35.851345 0-65.020814-29.169469-65.020814-65.020813 0-35.870798 29.169469-65.040267 65.020814-65.040268 35.870798 0 65.040267 29.169469 65.040267 65.040268 0 35.851345-29.169469 65.020814-65.040267 65.020813z m0-101.79775c-20.260643 0-36.757483 16.49684-36.757484 36.776937 0 20.260643 16.49684 36.757483 36.757484 36.757483 20.281121 0 36.776937-16.49684 36.776937-36.757483 0-20.280097-16.495816-36.776937-36.776937-36.776937z" fill="#108ee9" /><path d="M541.57288 836.080183h-53.294255a1.150847 1.150847 0 0 1-1.150847-1.150847V634.345081c0-0.635833 0.515014-1.150847 1.150847-1.150847h53.294255c0.635833 0 1.150847 0.515014 1.150847 1.150847V834.93036c0 0.634809-0.515014 1.149823-1.150847 1.149823z" fill="#c3e3fa" /><path d="M513.73651 850.206729h-10.228615c-20.300574 0-36.816869-16.516294-36.816868-36.797415v-157.534996c0-20.300574 16.516294-36.816869 36.816868-36.816868h10.228615c20.300574 0 36.816869 16.516294 36.816868 36.816868v157.534996c-0.001024 20.281121-16.517318 36.797415-36.816868 36.797415z m-10.229639-202.884925c-4.710896 0-8.553538 3.843666-8.553538 8.553538v157.534996c0 4.710896 3.843666 8.534084 8.553538 8.534084h10.228615c4.710896 0 8.553538-3.823188 8.553538-8.534084v-157.534996c0-4.710896-3.843666-8.553538-8.553538-8.553538h-10.228615z" fill="#108ee9" /><path d="M508.619131 741.496728c-97.496408 0-176.532164-79.035756-176.532165-176.532164v-242.957749h353.064329v242.957749c0 97.496408-79.035756 176.532164-176.532164 176.532164z" fill="#FFFFFF" /><path d="M508.611963 755.623274c-105.12845 0-190.665877-85.537428-190.665877-190.665877V307.871054h381.331755v257.085319c0 105.129473-85.537428 190.666901-190.665878 190.666901zM346.208393 336.134385v228.823012c0 89.558225 72.845345 162.403571 162.40357 162.403571s162.403571-72.845345 162.403571-162.403571V336.134385h-324.807141z" fill="#108ee9" /><path d="M308.625658 503.716768s-8.833059-74.156942-7.967876-143.360328c0.865183-69.203385 25.086214-110.726031 61.417762-131.486329s102.075224-37.19673 169.549266-7.785624c0 0 38.061913-19.030957 94.2896-3.459709s99.479674 51.902795 109.860847 116.781289-26.430576 171.536628-26.430576 171.536627l-24.193386-6.122834-1.80511-158.678676s-8.12453 46.89702-48.781992 38.247236-68.338202-33.737021-68.338202-33.737021-4.324892 69.203385-111.591214 61.417761c-107.265298-7.785624-107.265298-70.068568-107.265298-70.068568l-15.282513 81.756219v77.977059l-23.461308 6.982898z" fill="#c3e3fa" /><path d="M418.439407 207.562033s-95.692322 18.772937-112.224999 102.819588 0 192.153583 0 192.153583l22.338106-8.502344 17.005711-152.240485s-3.100325-59.823572 69.779833-98.389236c52.41269-27.735006 116.471051-15.791383 116.471051-15.791384s-9.717696-15.401283-52.231462-20.049722-61.138241 0-61.13824 0z" fill="#c3e3fa" /><path d="M508.611963 755.623274c-105.12845 0-190.665877-85.537428-190.665877-190.665877V418.754763c0-7.805078 6.326587-14.131665 14.131665-14.131665s14.131665 6.326587 14.131666 14.131665v146.202634c0 89.558225 72.845345 162.403571 162.40357 162.403571S671.016558 654.515622 671.016558 564.957397l-0.965524-146.103317c-0.038908-7.805078 6.228294-14.170573 14.033373-14.229958h0.098293c7.765146 0 14.07228 6.267202 14.131665 14.033372l0.965524 146.202634c-0.002048 105.225719-85.539476 190.763147-190.667926 190.763146z" fill="#c3e3fa" /><path d="M308.820196 519.566513c-2.739917 0-5.439903-0.788392-7.765146-2.325244a14.088662 14.088662 0 0 1-6.267202-10.130321c-0.374742-3.134113-9.124866-77.595149-8.257635-146.93164 1.103748-86.917625 37.880685-126.040283 68.528644-143.561009 41.053706-23.493049 108.49908-38.196042 176.613052-10.82042 14.033372-5.203385 50.139664-15.057258 98.01347-1.793847 68.134449 18.862015 109.641736 63.187035 120.048507 128.167917 10.82042 67.780185-28.14456 173.558801-29.800183 178.032156-2.621146 7.03614-10.268546 10.780489-17.44291 8.553538l-21.621386-6.740237a14.121426 14.121426 0 0 1-9.933736-13.32382l-1.202041-111.258451c-10.899259 6.780169-23.985538 8.790056-38.097749 5.774713-24.379733-5.183931-44.424336-15.708449-57.609932-24.242532-3.882573 8.494153-10.149775 18.250756-20.241189 27.060265-22.725135 19.846993-56.446798 28.321692-100.181036 25.129217-54.141008-3.941959-83.941191-21.069512-100.338714-38.88614l-7.055593 37.801846v78.46238a14.130641 14.130641 0 0 1-10.110868 13.53986l-23.256531 6.897915a13.996512 13.996512 0 0 1-4.021822 0.593854z m374.512679-192.518086c0.41365 0 0.807846 0.019454 1.221495 0.059385 7.253204 0.61126 12.850785 6.603036 12.929624 13.875694l1.557329 142.970227c10.189707-31.51519 30.115539-101.482394 22.783497-147.325835-8.651831-54.002784-42.177932-89.459932-99.669093-105.384421-50.435567-13.934055-83.881805 2.30579-84.197162 2.482922a14.235078 14.235078 0 0 1-11.983554 0.315356c-60.388756-26.350713-120.67922-13.618699-156.884829 7.095526-35.29947 20.16235-53.56968 60.329371-54.298687 119.398339-0.394196 30.963316 1.261427 63.502392 3.153567 89.735358v-31.515191c0-0.867231 0.078839-1.734462 0.236518-2.601692l15.294799-81.753148c1.340266-7.174364 8.061049-12.101301 15.195482-11.470587 7.272657 0.669621 12.830307 6.780169 12.830307 14.07228 0.059385 1.813301 2.6406 49.331819 94.150351 55.973763 90.681428 6.701329 96.279009-46.099413 96.476619-48.366295 0.453581-5.321132 3.922505-10.012575 8.888348-12.003008 4.986322-1.951525 10.662742-1.005455 14.664086 2.561761 0.255971 0.217064 25.64116 22.704657 61.827315 30.411442 7.213272 1.47849 13.008463 0.729006 17.797175-2.463468 9.007119-6.030685 13.264434-19.708769 14.131665-24.458573 1.241973-6.761739 7.154911-11.609836 13.895148-11.609835z" fill="#c3e3fa" /><path d="M308.820196 519.566513c-2.739917 0-5.439903-0.788392-7.765146-2.325244a14.088662 14.088662 0 0 1-6.267202-10.130321c-0.374742-3.134113-9.124866-77.595149-8.257635-146.93164 1.103748-86.917625 37.880685-126.059737 68.528644-143.561009 6.859008-3.882573 15.412546-1.517398 19.275666 5.242293 3.882573 6.780169 1.517398 15.412546-5.242293 19.275665-35.29947 20.16235-53.56968 60.329371-54.298687 119.398339-0.394196 30.963316 1.261427 63.502392 3.153567 89.735358v-31.515191c0-0.867231 0.078839-1.734462 0.236517-2.601692l15.294799-81.753148c1.340266-7.174364 8.061049-12.101301 15.195483-11.470587 7.272657 0.669621 12.830307 6.780169 12.830307 14.07228 0.059385 1.813301 2.6406 49.331819 94.150351 55.973763 90.681428 6.701329 96.279009-46.099413 96.476618-48.366295 0.453581-5.321132 3.922505-10.012575 8.888349-12.003008 4.986322-1.951525 10.662742-1.005455 14.664085 2.561761 0.255971 0.217064 25.64116 22.704657 61.827316 30.411442 7.213272 1.47849 13.008463 0.729006 17.797174-2.463468 9.007119-6.030685 13.264434-19.708769 14.131666-24.458573 1.340266-7.174364 8.001664-12.18014 15.116643-11.549426 7.253204 0.61126 12.850785 6.603036 12.929624 13.875694l1.557329 142.970227c10.189707-31.51519 30.115539-101.482394 22.783496-147.325835-4.651511-29.071176-16.791719-53.077191-36.067384-71.347401-16.260323-15.393092-37.663622-26.844225-63.621162-34.038044-6.997232-1.931048-14.012895-3.390084-20.852449-4.316701-38.117203-5.105092-63.167581 6.701329-63.404099 6.839554-3.705441 1.773369-8.080503 1.911594-11.904714 0.275425-13.697538-5.972323-28.006335-10.189707-42.512743-12.51495-7.706785-1.241973-12.949078-8.494153-11.726559-16.181484 1.241973-7.706785 8.691763-12.889692 16.181484-11.726558 14.899579 2.384629 29.603596 6.484266 43.754716 12.18014 11.549426-4.276769 37.861232-11.668197 73.376741-6.859008 8.099957 1.084295 16.397523 2.798279 24.636729 5.065161 30.45035 8.435791 55.835538 22.152783 75.505399 40.758827 23.887245 22.645272 38.886141 52.051258 44.543108 87.410114 10.82042 67.780185-28.14456 173.558801-29.800183 178.032156-2.621146 7.03614-10.268546 10.780489-17.44291 8.553538l-21.621387-6.740237a14.121426 14.121426 0 0 1-9.933735-13.32382l-1.202041-111.258451c-10.899259 6.780169-23.985538 8.790056-38.097749 5.774713-24.379733-5.183931-44.424336-15.708449-57.609932-24.242532-3.882573 8.494153-10.149775 18.250756-20.241189 27.060265-22.725135 19.846993-56.446798 28.321692-100.181036 25.129217-54.141008-3.941959-83.941191-21.069512-100.338714-38.88614l-7.055594 37.801846v78.46238a14.130641 14.130641 0 0 1-10.110867 13.53986l-23.256532 6.897915a14.054874 14.054874 0 0 1-4.023869 0.59283z" fill="#108ee9" /><path d="M338.975667 628.085046c-6.130001 0-11.785944-4.020798-13.579791-10.20916-4.947414-17.107076-7.44979-34.924728-7.44979-52.919513V418.754763c0-7.805078 6.326587-14.131665 14.131665-14.131665s14.131665 6.326587 14.131666 14.131665v146.202634c0 15.35316 2.128658 30.509735 6.346041 45.074503 2.167565 7.489721-2.167565 15.333707-9.657287 17.501272a14.167501 14.167501 0 0 1-3.922504 0.551874zM374.491177 693.874798c-3.980866 0-7.942278-1.675076-10.722127-4.947414-8.770602-10.228614-16.456909-21.423777-22.902267-33.269106-3.724895-6.859008-1.182588-15.432 5.67642-19.156894a14.131665 14.131665 0 0 1 19.156895 5.67642c5.47881 10.110868 12.062393 19.650407 19.512182 28.381077 5.084615 5.912938 4.39554 14.841218-1.536852 19.906379a14.057946 14.057946 0 0 1-9.184251 3.409538zM508.611963 755.623274c-28.775273 0-56.446798-6.267202-82.245636-18.60502a192.734126 192.734126 0 0 1-21.956197-12.357272c-6.543651-4.276769-8.376406-13.027917-4.099637-19.55109 4.257315-6.543651 13.008463-8.376406 19.551091-4.099637 5.932392 3.882573 12.239525 7.410882 18.704337 10.524517 21.956197 10.505063 45.528085 15.826195 70.046042 15.826196 89.558225 0 162.403571-72.845345 162.403571-162.403571l-0.965524-146.103317c-0.038908-7.805078 6.228294-14.170573 14.033373-14.229958h0.098293c7.765146 0 14.07228 6.267202 14.131665 14.033372l0.965524 146.202634c-0.001024 105.225719-85.538452 190.763147-190.666902 190.763146zM412.135345 957.79967h-83.664742c-7.805078 0-14.131665-6.326587-14.131665-14.131665v-60.191146a93.354792 93.354792 0 0 1 56.860448-86.010463l23.158238-9.854896c7.174364-3.034796 15.491385 0.295903 18.546659 7.469243 3.055274 7.193818-0.295903 15.491385-7.470268 18.546659l-23.158238 9.854896a65.08839 65.08839 0 0 0-39.674532 59.994561v46.060505h69.5341c7.805078 0 14.131665 6.326587 14.131665 14.131665s-6.326587 14.130641-14.131665 14.130641z" fill="#108ee9" /></svg>