<?xml version="1.0" standalone="no"?><!DOCTYPE svg PUBLIC "-//W3C//DTD SVG 1.1//EN" "http://www.w3.org/Graphics/SVG/1.1/DTD/svg11.dtd"><svg class="icon" width="128px" height="128.00px" viewBox="0 0 1024 1024" version="1.1" xmlns="http://www.w3.org/2000/svg"><path d="M719.682852 233.348585h-31.027821v-12.665462c0-24.300894-19.755867-44.087478-44.057786-44.087478H376.525637c-24.300894 0-44.057786 19.786584-44.057785 44.087478v12.665462h-31.027821v-12.665462c0-41.421281 33.695042-75.116323 75.085606-75.116322h268.071608c41.390564 0 75.085606 33.695042 75.085607 75.116322v12.665462z" fill="#888" /><path d="M793.534676 233.335274s21.644936 326.669589 0 446.956661C770.75118 806.916857 78.647703 769.683267 78.647703 769.683267l29.789944 89.392357h804.248612l29.785848-84.866783v-473.178364l-29.785848-59.513335-119.151583-8.181868z" fill="#ddd" /><path d="M431.21852 540.659574L73.546707 416.153071l10.181515-29.331243L441.400035 511.328331l-10.181515 29.331243z m158.928504-0.241637l-10.241925-29.270833 357.459868-125.112644 10.241925 29.270834-357.459868 125.112643z" fill="#888" /><path d="M882.913722 874.5752H138.238853c-38.391604 0-70.48017-28.725103-74.661718-66.813637-0.091126-1.060745-0.30307-3.120802-0.454605-67.843666-0.030717-8.57504 6.908154-15.51391 15.484218-15.544627h0.030717c8.545347 0 15.484218 6.908154 15.51391 15.484218 0 0 0.120818 60.419473 0.333787 65.298287 2.393844 21.543571 21.240501 38.391604 43.754715 38.391604h744.673845c24.300894 0 44.057786-19.755867 44.057785-44.057786V292.920281c0-24.300894-19.755867-44.057786-44.057785-44.057786H138.238853c-24.300894 0-44.087478 19.755867-44.087478 44.057786v357.580687c0 8.57504-6.938871 15.51391-15.51391 15.51391s-15.51391-6.938871-15.513911-15.51391V292.920281c0-41.390564 33.695042-75.085606 75.116323-75.085606h744.673845c41.390564 0 75.085606 33.695042 75.085606 75.085606v506.570336c0 41.390564-33.695042 75.084583-75.085606 75.084583z" fill="#888" /><path d="M585.025549 636.198314H436.097333c-8.57504 0-15.51391-6.938871-15.51391-15.513911V441.908906c0-8.57504 6.938871-15.51391 15.51391-15.51391h148.92924c8.57504 0 15.51391 6.938871 15.51391 15.51391v178.775497c-0.001024 8.57504-6.939895 15.51391-15.514934 15.513911zM451.611244 605.170493h117.900395v-147.746652h-117.900395v147.746652z" fill="#888" /></svg>