<?xml version="1.0" standalone="no"?><!DOCTYPE svg PUBLIC "-//W3C//DTD SVG 1.1//EN" "http://www.w3.org/Graphics/SVG/1.1/DTD/svg11.dtd"><svg class="icon" width="128px" height="128.00px" viewBox="0 0 1024 1024" version="1.1" xmlns="http://www.w3.org/2000/svg"><path d="M77.619723 943.311693l319.350856-375.911306L573.655303 727.866767l369.863215-453.037516v668.482442z" fill="#c3e3fa" /><path d="M943.511351 957.791479H77.619723c-7.998592 0-14.487977-6.488361-14.487978-14.487977V77.41085c0-7.998592 6.488361-14.487977 14.487978-14.487977h865.891628c7.998592 0 14.487977 6.488361 14.487977 14.487977v865.891628c0 7.999616-6.489385 14.489001-14.487977 14.489001z m-851.404675-28.975954h836.916697V91.898827H92.106676v836.916698z" fill="#108ee9" /><path d="M77.619723 808.807974c-3.398275 0-6.819076-1.179516-9.579472-3.61022-6.017374-5.285296-6.583583-14.440879-1.297262-20.457229l316.324251-359.41037a14.438831 14.438831 0 0 1 10.004384-4.883933c3.798615-0.211944 7.645352 1.085318 10.499944 3.633769l157.005647 139.663078 278.240837-344.898844h-46.200777c-7.998592 0-14.487977-6.488361-14.487977-14.487977s6.488361-14.487977 14.487977-14.487977h76.521094a14.445998 14.445998 0 0 1 13.071943 8.235109 14.490025 14.490025 0 0 1-1.792823 15.360328L573.577487 593.803318c-2.477802 3.09111-6.135121 5.002704-10.075031 5.332395-3.988033 0.377814-7.857296-0.991121-10.830659-3.61022L395.194138 455.437503 88.496456 803.899467c-2.854592 3.256979-6.866175 4.908506-10.876733 4.908507z" fill="#108ee9" /><path d="M869.137345 300.390548c-7.998592 0-14.487977-6.488361-14.487978-14.487977v-81.546323c0-7.998592 6.488361-14.487977 14.487978-14.487977 7.998592 0 14.487977 6.488361 14.487977 14.487977V285.902571c0 7.999616-6.488361 14.487977-14.487977 14.487977z" fill="#108ee9" /></svg>