<?xml version="1.0" standalone="no"?><!DOCTYPE svg PUBLIC "-//W3C//DTD SVG 1.1//EN" "http://www.w3.org/Graphics/SVG/1.1/DTD/svg11.dtd"><svg class="icon" width="128px" height="128.00px" viewBox="0 0 1024 1024" version="1.1" xmlns="http://www.w3.org/2000/svg"><path d="M510.205129 77.007439a441.499352 441.499352 0 0 0-43.716832 2.183948c220.482442 21.933671 392.674356 207.952133 392.674357 434.20724S686.970739 925.671173 466.488297 947.604844a441.499352 441.499352 0 0 0 43.716832 2.183948c241.011343 0 436.391188-195.378822 436.391188-436.391189S751.216472 77.007439 510.205129 77.007439z" fill="#c3e3fa" /><path d="M511.439935 62.923897c-247.196634 0-448.316381 201.119747-448.316381 448.31638s201.119747 448.316381 448.316381 448.316381c247.205849 0 448.325596-201.119747 448.325595-448.316381S758.645784 62.923897 511.439935 62.923897z m0 870.29843c-232.679988 0-421.98205-189.302062-421.98205-421.98205S278.760971 89.258227 511.439935 89.258227c232.688179 0 421.991265 189.302062 421.991265 421.98205S744.129138 933.222327 511.439935 933.222327z" fill="#108ee9" /><path d="M738.610396 369.795639L483.645544 624.760491 318.887037 459.993793c-5.141952-5.141952-13.47945-5.141952-18.621403 0-5.141952 5.141952-5.141952 13.47945 0 18.621402l174.068697 174.077911a13.12621 13.12621 0 0 0 9.311213 3.856976c3.369607 0 6.740237-1.286 9.311213-3.856976l264.276065-264.276065c5.141952-5.141952 5.141952-13.47945 0-18.621402-5.142976-5.141952-13.480474-5.141952-18.622426 0z" fill="#108ee9" /></svg>