<?xml version="1.0" standalone="no"?><!DOCTYPE svg PUBLIC "-//W3C//DTD SVG 1.1//EN" "http://www.w3.org/Graphics/SVG/1.1/DTD/svg11.dtd"><svg class="icon" width="128px" height="128.00px" viewBox="0 0 1024 1024" version="1.1" xmlns="http://www.w3.org/2000/svg"><path d="M801.168765 276.730606v604.065721l-299.790551 4.71704v58.756683l391.567536-2.291456V276.730606h-91.776985z" fill="#c3e3fa" /><path d="M403.486586 85.427872v795.368455H128.162798v61.182267l402.580447 2.291456-4.894172-858.841154H403.486586z" fill="#c3e3fa" /><path d="M816.458445 721.602637H571.744733v-122.364536H816.459469v122.364536z m-214.123091-30.591646h183.532469v-61.182268H602.335354v61.182268zM816.458445 510.071H571.744733v-122.364535H816.459469v122.364535z m-214.123091-30.590622h183.532469v-61.182267H602.335354v61.182267z" fill="#108ee9" /><path d="M892.951893 957.286704H525.84293c-8.454221 0-15.295823-7.492793-15.295823-16.752812V270.440879c0-9.260019 6.841602-16.752812 15.295823-16.752812h367.108963c8.454221 0 15.295823 7.492793 15.295823 16.752812V940.533892c0 9.260019-6.841602 16.752812-15.295823 16.752812z m-351.814164-33.5046h336.518342V287.19369H541.137729v636.588414zM449.364839 773.738877h-244.72907v-122.364535h244.72907v122.364535z m-214.138448-30.590622h183.546802v-61.182267H235.226391v61.182267zM449.364839 559.600429h-244.72907v-122.364535h244.72907v122.364535z m-214.138448-30.590622h183.546802v-61.182268H235.226391v61.182268zM449.364839 314.871358h-244.72907v-122.364535h244.72907v122.364535z m-214.138448-30.591645h183.546802V223.097445H235.226391v61.182268z" fill="#108ee9" /><path d="M525.84293 957.286704H128.156654c-8.454221 0-15.295823-6.685971-15.295822-14.948726V105.226743c0-8.262755 6.841602-14.948726 15.295822-14.948726h397.685252c8.454221 0 15.295823 6.685971 15.295823 14.948726v837.111235c0 8.262755-6.840578 14.948726-15.294799 14.948726z m-382.390453-29.897452h367.09463V120.175468H143.452477v807.213784z" fill="#108ee9" /><path d="M921.780409 959.556658H101.390244c-8.454221 0-15.295823-6.841602-15.295823-15.295823s6.841602-15.295823 15.295823-15.295823h820.391188c8.454221 0 15.295823 6.841602 15.295823 15.295823-0.001024 8.455245-6.842626 15.295823-15.296846 15.295823z" fill="#108ee9" /></svg>