<?xml version="1.0" standalone="no"?><!DOCTYPE svg PUBLIC "-//W3C//DTD SVG 1.1//EN" "http://www.w3.org/Graphics/SVG/1.1/DTD/svg11.dtd"><svg class="icon" width="128px" height="128.00px" viewBox="0 0 1024 1024" version="1.1" xmlns="http://www.w3.org/2000/svg"><path d="M522.309501 76.97877a440.62905 440.62905 0 0 0-43.626729 2.179852c220.028861 21.88862 391.866511 207.524149 391.86651 433.313389S698.711632 923.89678 478.682772 945.7854a440.62905 440.62905 0 0 0 43.626729 2.179852c240.515782 0 435.493241-194.977459 435.493241-435.493241S762.825284 76.97877 522.309501 76.97877z" fill="#ddd" /><path d="M510.526629 62.923897c-246.696978 0-447.404099 200.706097-447.404099 447.394883 0 246.698002 200.706097 447.404099 447.404099 447.404099 246.688787 0 447.394884-200.706097 447.394884-447.404099 0-246.688787-200.706097-447.394884-447.394884-447.394883z m0 868.51687c-232.210024 0-421.12301-188.912986-421.12301-421.123011 0-232.20081 188.912986-421.113795 421.12301-421.113795 232.20081 0 421.113795 188.912986 421.113795 421.113795 0.001024 232.210024-188.911962 421.12301-421.113795 421.123011z" fill="#888" /><path d="M681.616843 339.227543c-5.131713-5.131713-13.451805-5.131713-18.583519 0L510.522533 491.739357 358.011743 339.227543c-5.131713-5.131713-13.451805-5.131713-18.583519 0-5.131713 5.131713-5.131713 13.451805 0 18.583518L491.939015 510.322876 339.428224 662.833667c-5.131713 5.131713-5.131713 13.451805 0 18.583518 2.565857 2.565857 5.928296 3.848785 9.291759 3.848785s6.725903-1.282928 9.29176-3.848785L510.522533 528.906394l152.510791 152.510791a13.098565 13.098565 0 0 0 9.29176 3.848785c3.363463 0 6.725903-1.282928 9.291759-3.848785 5.131713-5.131713 5.131713-13.451805 0-18.583518L529.106052 510.322876l152.510791-152.510791c5.131713-5.131713 5.131713-13.452829 0-18.584542z" fill="#888" /></svg>