<?xml version="1.0" standalone="no"?><!DOCTYPE svg PUBLIC "-//W3C//DTD SVG 1.1//EN" "http://www.w3.org/Graphics/SVG/1.1/DTD/svg11.dtd"><svg class="icon" width="128px" height="128.00px" viewBox="0 0 1024 1024" version="1.1" xmlns="http://www.w3.org/2000/svg"><path d="M842.104724 204.695154h-92.666741v598.129234c0 43.21308-35.031213 78.244293-78.244293 78.244292H207.297871c0 42.39602 46.332859 45.242421 61.582606 45.242421h496.41749c42.394996 0 76.763754-34.367735 76.763754-76.76273h-2.841282c1.71808-7.055594 2.883261-14.318012 2.883261-21.901931V204.695154z" fill="#c3e3fa" /><path d="M332.399251 398.170573c-7.167197 0-12.976723 5.809525-12.976722 12.976723v302.71272c0 7.167197 5.809525 12.976723 12.976722 12.976722 7.167197 0 12.976723-5.809525 12.976723-12.976722V411.147296c0-7.167197-5.810549-12.976723-12.976723-12.976723zM519.080167 398.170573c-7.167197 0-12.976723 5.809525-12.976723 12.976723v302.71272c0 7.167197 5.809525 12.976723 12.976723 12.976722 7.167197 0 12.976723-5.809525 12.976723-12.976722V411.147296c0-7.167197-5.809525-12.976723-12.976723-12.976723zM705.770298 726.836738c7.167197 0 12.976723-5.809525 12.976722-12.976722V411.147296c0-7.167197-5.809525-12.976723-12.976722-12.976723-7.167197 0-12.976723 5.809525-12.976723 12.976723v302.71272c-0.001024 7.167197 5.809525 12.976723 12.976723 12.976722z" fill="#108ee9" /><path d="M947.082663 193.914666H647.451837c-6.542627-66.870974-63.087718-119.308237-131.648103-119.308238s-125.105476 52.436239-131.648103 119.308238H76.100277c-7.167197 0-12.976723 5.809525-12.976723 12.976722 0 7.167197 5.809525 12.976723 12.976723 12.976723h101.236661v610.755787c0 63.354952 51.554674 114.909626 114.909626 114.909626h447.884301c63.354952 0 114.909626-51.554674 114.909626-114.909626V219.869135h92.042172c7.167197 0 12.976723-5.809525 12.976722-12.976723 0-7.167197-5.809525-12.977746-12.976722-12.977746zM515.803734 100.560897c54.238277 0 99.117219 40.821284 105.538004 93.353769H410.26573c6.420785-52.532484 51.299726-93.353768 105.538004-93.353769z m313.283312 730.064025c0 49.057418-39.898763 88.956181-88.956181 88.956181H292.246564c-49.057418 0-88.956181-39.898763-88.956181-88.956181V219.869135h625.796663v610.755787z" fill="#108ee9" /></svg>