<?xml version="1.0" standalone="no"?><!DOCTYPE svg PUBLIC "-//W3C//DTD SVG 1.1//EN" "http://www.w3.org/Graphics/SVG/1.1/DTD/svg11.dtd"><svg class="icon" width="128px" height="128.00px" viewBox="0 0 1024 1024" version="1.1" xmlns="http://www.w3.org/2000/svg"><path d="M408.322396 589.671941s109.90897 22.201929 177.219191 0.574399c30.613147-9.836466 147.470203-73.400291 146.23335-67.669605-15.23439 70.587678-67.998272 241.769018-221.438751 241.769018-193.296239 0-254.740621-43.316493-254.740621-43.316492v51.220887s23.639464 96.71416 69.301679 93.602572c45.659142-3.111588 334.230982 11.55557 342.987249 6.861056 8.75422-4.694514 60.440975-13.351465 63.493177-29.634313 1.034124-5.510551 30.758539-57.692866 30.758539-57.692866V506.802758l67.588718-35.002544v292.545539s69.420449 10.331003 70.069592 0c1.480538-23.5381-4.441615-201.403363 0-328.952853 0.807846-23.205337 42.994993-39.594669 43.64004-58.308221 0.824228-23.884173-215.466428-133.920105-269.232694-161.649992-67.520118-34.823364-192.706481-71.371974-192.70648-71.371974s365.677572 151.655847 318.254275 239.316812c-58.185355 107.554034-391.427264 206.292415-391.427264 206.292416z" fill="#c3e3fa" /><path d="M899.796567 778.44363h-70.072664c-7.796887 0-14.105044-6.309181-14.105044-14.105044V495.699746c-107.237653 58.350201-263.98221 131.495544-305.279601 131.495544-45.897707 0-447.215704-169.87179-447.215704-250.097301 0-80.252132 401.317996-250.124946 447.215704-250.124946 46.903163 0 447.202393 182.379573 447.202393 250.124946 0 10.386293-5.344681 24.904987-43.639016 53.832819v333.407778c0 7.795863-6.309181 14.105044-14.106068 14.105044z m-55.96762-28.211112h41.861552V423.849617c0-4.490761 2.149135-8.733742 5.785976-11.378438 31.530549-23.058921 36.889564-33.225079 37.743484-35.429504-12.631673-44.437647-367.706913-221.858544-418.880701-221.858544-61.353256 0-419.004591 176.153327-419.004591 221.913834s357.651335 221.886189 419.004591 221.886189c31.599149 0 189.294895-70.390068 312.483658-139.512567 4.352537-2.42456 9.697218-2.42456 14.023133 0.138225a14.110164 14.110164 0 0 1 6.983922 12.177068v278.446638z" fill="#108ee9" /><path d="M659.879757 886.82394H351.087206c-60.444046 0-117.596301-55.67786-117.596301-114.579935v-256.626618c0-7.796887 6.309181-14.105044 14.105044-14.105044 7.796887 0 14.105044 6.309181 14.105044 14.105044v256.626618c0 42.785096 45.112387 86.368823 89.385189 86.368822h308.791528c39.60286 0 83.090342-45.897707 83.090342-87.718303V521.210872c0-7.796887 6.309181-14.105044 14.105044-14.105044 7.796887 0 14.105044 6.309181 14.105044 14.105044v249.683652c0.002048 57.413346-56.171373 115.929416-111.298383 115.929416z" fill="#108ee9" /></svg>