<?xml version="1.0" standalone="no"?><!DOCTYPE svg PUBLIC "-//W3C//DTD SVG 1.1//EN" "http://www.w3.org/Graphics/SVG/1.1/DTD/svg11.dtd"><svg class="icon" width="128px" height="128.00px" viewBox="0 0 1024 1024" version="1.1" xmlns="http://www.w3.org/2000/svg"><path d="M744.7834 178.660822h91.905995c13.287984 0 24.060281 11.050794 24.060281 24.68178v523.477754c0 121.396964-95.936007 219.808725-214.279745 219.808726h-463.717663c-13.287984 0-24.060281-11.050794-24.060282-24.68178V203.342602c0-13.630985 10.772298-24.68178 24.060282-24.68178h98.858176" fill="#ddd" /><path d="M312.48161 946.629082L151.671205 940.446862V184.352601h84.407058V829.585678c0 42.853696 21.982818 82.712528 58.227335 105.576912l18.176012 11.466492z" fill="#FFFFFF" /><path d="M735.194714 454.683923H284.259235c-7.439551 0-13.474331-6.03478-13.474331-13.47433s6.03478-13.474331 13.474331-13.474331h450.935479c7.439551 0 13.474331 6.03478 13.474331 13.474331s-6.03478 13.474331-13.474331 13.47433zM744.784424 623.159134H274.669525c-7.439551 0-13.474331-6.03478-13.474331-13.474331s6.03478-13.474331 13.474331-13.474331h470.115923c7.439551 0 13.474331 6.03478 13.474331 13.474331s-6.035804 13.474331-13.475355 13.474331zM565.600397 791.634345H274.669525c-7.439551 0-13.474331-6.03478-13.474331-13.474331s6.03478-13.474331 13.474331-13.474331h290.930872c7.439551 0 13.474331 6.03478 13.474331 13.474331s-6.03478 13.474331-13.474331 13.474331z" fill="#888" /><path d="M598.207049 126.818436c-16.400595-30.589598-49.721919-51.774809-88.612156-51.774809s-72.212584 21.185211-88.612155 51.774809h-139.37127v167.085799H737.579343V126.818436H598.207049zM860.7507 713.679812H657.522773v232.94927c112.780969-1.871662 203.227926-93.832947 203.227927-206.629274v-26.319996" fill="#fff" /><path d="M646.468907 960.109556h-463.707424c-20.716272 0-37.548947-17.117315-37.548947-38.163278v-718.603676c0-21.045963 16.832675-38.163278 37.548947-38.163278h98.842817c7.439551 0 13.474331 6.03478 13.474331 13.474331s-6.03478 13.474331-13.474331 13.474331h-98.842817c-5.83717 0-10.599261 5.025229-10.599261 11.214616v718.6047c0 6.188363 4.762091 11.214616 10.599261 11.214616h463.707424c110.714768 0 200.801318-92.566401 200.801319-206.331323V203.342602c0-6.188363-4.740589-11.214616-10.57776-11.214616h-91.908042c-7.439551 0-13.474331-6.03478-13.474331-13.474331s6.03478-13.474331 13.474331-13.474331h91.908042c20.69477 0 37.526421 17.117315 37.526421 38.163278v523.486969c0 128.644024-102.156111 233.279985-227.74998 233.279985z" fill="#ddd" /><path d="M158.686867 657.569872c-7.439551 0-13.474331-6.03478-13.474331-13.474331V203.342602c0-21.045963 16.832675-38.163278 37.548947-38.163278h98.842817c7.439551 0 13.474331 6.03478 13.474331 13.474331s-6.03478 13.474331-13.474331 13.474331h-98.842817c-5.83717 0-10.599261 5.025229-10.599261 11.214616v440.752939c0 7.438527-6.035804 13.474331-13.475355 13.474331z" fill="#888" /><path d="M284.255139 130.98053h84.407059v162.922681h-84.407059z" fill="#FFFFFF" /><path d="M646.468907 960.109556h-463.707424c-20.716272 0-37.548947-17.117315-37.548947-38.163278V802.344185c0-7.439551 6.03478-13.474331 13.474331-13.47433s13.474331 6.03478 13.474331 13.47433v119.603117c0 6.188363 4.762091 11.214616 10.599261 11.214616h463.707425c110.714768 0 200.801318-92.566401 200.801318-206.331323V203.342602c0-6.188363-4.740589-11.214616-10.577759-11.214616h-91.908043c-7.439551 0-13.474331-6.03478-13.474331-13.474331s6.03478-13.474331 13.474331-13.474331h91.908043c20.69477 0 37.526421 17.117315 37.526421 38.163278v523.486969c0.001024 128.644024-102.155087 233.279985-227.748957 233.279985z" fill="#888" /><path d="M737.58651 307.385733H281.6043c-7.439551 0-13.474331-6.03478-13.474331-13.474331V126.818436c0-7.439551 6.03478-13.474331 13.474331-13.474331h131.651175c20.474635-32.128498 56.662838-51.76969 96.340442-51.769689s75.865807 19.641192 96.340442 51.769689h131.651175c7.439551 0 13.474331 6.03478 13.474331 13.474331v167.092966c-0.001024 7.439551-6.035804 13.474331-13.475355 13.474331z m-442.507879-26.948662h429.033548V140.292767H598.211144a13.491737 13.491737 0 0 1-11.894475-7.109859c-14.74702-27.541491-44.154031-44.658806-76.721776-44.658807s-61.973731 17.117315-76.721775 44.658807a13.489689 13.489689 0 0 1-11.894476 7.109859H295.078631v140.144304zM657.529941 960.109556c-7.439551 0-13.474331-6.03478-13.474331-13.474331V713.683907c0-7.439551 6.03478-13.474331 13.474331-13.47433h203.214616c7.439551 0 13.474331 6.03478 13.47433 13.47433s-6.03478 13.474331-13.47433 13.474331H671.004272v219.476987c0 7.439551-6.03478 13.474331-13.474331 13.474331z" fill="#888" /></svg>