<?xml version="1.0" standalone="no"?><!DOCTYPE svg PUBLIC "-//W3C//DTD SVG 1.1//EN" "http://www.w3.org/Graphics/SVG/1.1/DTD/svg11.dtd"><svg class="icon" width="128px" height="128.00px" viewBox="0 0 1024 1024" version="1.1" xmlns="http://www.w3.org/2000/svg"><path d="M845.510167 542.007007l-0.006143 299.047211c-0.001024 50.260483-40.745517 91.002928-91.004976 91.002928H266.62281c-50.261507 0-91.005999-40.745517-91.004975-91.007024l0.006143-299.044139" fill="#c3e3fa" /><path d="M262.749452 543.702561s-15.780121 230.484778 5.798263 288.029181 56.105844 86.694418 116.528388 93.510423c0 0-96.173549 23.472571-141.173308 0-44.99976-23.472571-68.28496-31.714848-68.28496-84.192043V558.394292l10.928952-16.388309 76.202665 1.696578z" fill="#FFFFFF" /><path d="M888.269666 542.007007H132.849121c-30.879358 0-55.911306-25.032972-55.911306-55.911306v-245.128385c0-30.879358 25.032972-55.911306 55.911306-55.911306h755.420545c30.879358 0 55.911306 25.032972 55.911306 55.911306v245.128385c0 30.878334-25.031948 55.911306-55.911306 55.911306z" fill="#c3e3fa" /><path d="M510.566561 198.860032c-7.631017 0-13.813237-6.181196-13.813237-13.801975 0-37.741437-59.826643-69.627274-130.655959-69.627273-70.818052 0-130.644696 31.885837-130.644696 69.627273 0 7.619755-6.181196 13.801974-13.813237 13.801975s-13.813237-6.181196-13.813237-13.801975c0-54.532132 69.525909-97.252724 158.270146-97.252723 88.755499 0 158.281408 42.720591 158.281409 97.252723 0.002048 7.620778-6.179148 13.801974-13.811189 13.801975z" fill="#108ee9" /><path d="M799.481402 198.860032c-7.631017 0-13.813237-6.181196-13.813237-13.801975 0-37.741437-59.826643-69.627274-130.644696-69.627273s-130.644696 31.885837-130.644695 69.627273c0 7.619755-6.181196 13.801974-13.813237 13.801975-7.631017 0-13.813237-6.181196-13.813237-13.801975 0-54.532132 69.525909-97.252724 158.270145-97.252723s158.270146 42.720591 158.270146 97.252723c0.002048 7.620778-6.179148 13.801974-13.811189 13.801975z" fill="#108ee9" /><path d="M510.555298 557.502488c-7.631017 0-13.813237-6.181196-13.813237-13.801974V163.333259c0-7.631017 6.181196-13.813237 13.813237-13.813237s13.813237 6.181196 13.813237 13.813237v380.368278c0 7.619755-6.181196 13.80095-13.813237 13.800951z" fill="#108ee9" /><path d="M754.50212 945.862191H266.619739c-57.792183 0-104.817188-47.025005-104.817189-104.817188l0.011263-299.029805c0-7.619755 6.181196-13.801974 13.813237-13.801974 7.631017 0 13.813237 6.181196 13.813237 13.801974l-0.011263 299.029805c0 42.574176 34.627802 77.21324 77.190715 77.21324h487.882381c42.562913 0 77.190715-34.639064 77.190714-77.21324V542.015198c0-7.619755 6.181196-13.801974 13.813237-13.801974s13.813237 6.181196 13.813237 13.801974v299.029805c0 57.792183-47.025005 104.817188-104.817188 104.817188z" fill="#c3e3fa" /><path d="M175.616811 695.924616c-7.631017 0-13.813237-6.181196-13.813237-13.801974l0.011263-140.107444c0-7.619755 6.181196-13.801974 13.813237-13.801974 7.631017 0 13.813237 6.181196 13.813237 13.801974l-0.011263 140.107444c-0.001024 7.620778-6.18222 13.801974-13.813237 13.801974z" fill="#108ee9" /><path d="M164.488201 177.880621s-24.935703 231.377606-10.550114 288.922009c14.905723 59.62289 59.087398 66.30067 119.508919 73.116675 0 0-96.173549 23.472571-141.173309 0-44.99976-23.472571-68.28496-31.714848-68.28496-84.192042V267.794135l30.486186-58.982962 70.013278-30.930552z" fill="#FFFFFF" /><path d="M754.50212 945.862191H266.619739c-57.792183 0-104.817188-47.025005-104.817189-104.817188V802.24794c0-7.619755 6.181196-13.801974 13.813237-13.801974s13.813237 6.181196 13.813237 13.801974v38.798087c0 42.574176 34.627802 77.21324 77.190715 77.21324h487.882381c42.562913 0 77.190715-34.639064 77.190714-77.21324V542.015198c0-7.619755 6.181196-13.801974 13.813237-13.801974s13.813237 6.181196 13.813237 13.801974v299.029805c0 57.792183-47.025005 104.817188-104.817188 104.817188z" fill="#108ee9" /><path d="M862.162638 555.817172H158.948982c-52.835554 0-95.825428-42.97861-95.825428-95.825427V267.060009c0-52.824292 42.989873-95.814165 95.825428-95.814165h703.213656c52.846817 0 95.83669 42.989873 95.83669 95.814165v192.931736c0 52.846817-42.989873 95.825428-95.83669 95.825427z m-703.213656-356.95714c-37.606284 0-68.198954 30.59267-68.198954 68.198953v192.931736c0 37.606284 30.59267 68.221479 68.198954 68.221479h703.213656c37.617547 0 68.210216-30.615195 68.210216-68.221479v-192.930712c0-37.606284-30.59267-68.198954-68.210216-68.198953H158.948982z" fill="#108ee9" /></svg>