<?xml version="1.0" standalone="no"?><!DOCTYPE svg PUBLIC "-//W3C//DTD SVG 1.1//EN" "http://www.w3.org/Graphics/SVG/1.1/DTD/svg11.dtd"><svg class="icon" width="128px" height="128.00px" viewBox="0 0 1024 1024" version="1.1" xmlns="http://www.w3.org/2000/svg"><path d="M608.559553 657.292399l-45.599756-75.418369-218.966068-38.166349 315.185691-200.438863 6.405426-53.80415-399.793431 254.243013 218.966068 38.166349 45.600781 75.418369 45.487129 75.230998 30.907003 51.118499 12.865119-108.060857z" fill="#c3e3fa" /><path d="M509.319468 74.531684c-14.727567 0-29.279025 0.752556-43.630825 2.179852 220.050362 21.890668 391.904395 207.544627 391.904395 433.355369S685.739005 921.532628 465.688643 943.422273a440.713008 440.713008 0 0 0 43.630825 2.179852c240.539332 0 435.53522-194.995888 435.53522-435.53522S749.8588 74.531684 509.319468 74.531684z" fill="#c3e3fa" /><path d="M510.561441 957.508887c-246.721551 0-447.437887-200.716336-447.437887-447.437887s200.716336-447.437887 447.437887-447.437887 447.437887 200.716336 447.437887 447.437887-200.716336 447.437887-447.437887 447.437887z m0-868.592638c-232.223335 0-421.154751 188.931416-421.154751 421.154751s188.931416 421.154751 421.154751 421.154751 421.154751-188.931416 421.154751-421.154751-188.931416-421.154751-421.154751-421.154751z" fill="#108ee9" /><path d="M616.995345 796.785512c-4.527621 0-8.834083-2.345721-11.235094-6.341946l-118.91609-196.647415-213.069512-37.151679c-5.351849-0.934807-9.567184-5.059017-10.631001-10.374006s1.264498-10.740557 5.828979-13.654535l399.783192-254.235846c4.307486-2.676436 9.75046-2.712272 14.057946-0.036859a13.19481 13.19481 0 0 1 6.04809 12.683891l-58.816068 494.176204c-0.659382 5.571984-4.802022 10.098581-10.281857 11.290384a13.054538 13.054538 0 0 1-2.768585 0.291807zM311.69629 536.592702l185.558737 32.349656a13.109828 13.109828 0 0 1 8.981523 6.140241l102.236997 169.081351 51.026349-428.742765-347.803606 221.171517z" fill="#108ee9" /></svg>