<?xml version="1.0" standalone="no"?><!DOCTYPE svg PUBLIC "-//W3C//DTD SVG 1.1//EN" "http://www.w3.org/Graphics/SVG/1.1/DTD/svg11.dtd"><svg class="icon" width="128px" height="128.00px" viewBox="0 0 1024 1024" version="1.1" xmlns="http://www.w3.org/2000/svg"><path d="M818.356728 156.841826c42.486122 47.581999 68.528645 110.158798 68.528645 178.969011 0 74.314621-34.97797 144.848033-78.822788 190.294207-33.392996 34.613467-219.827155 220.404627-308.393236 308.585727-18.733006 18.653143-45.741053 23.542195-69.022157 15.094117l33.382757 33.483098c25.753788 25.831603 67.452541 25.927848 93.30155 0.190443 88.567104-88.182124 275.00024-273.972259 308.393236-308.585727 43.844817-45.447198 78.822788-115.98061 78.822788-190.294207-0.001024-96.048635-50.477547-180.114739-126.190795-227.736669z" fill="#c3e3fa" /><path d="M236.120243 230.034268c-47.037292 27.207705-76.243621 77.829619-76.243621 132.094518 0 18.028573 3.115683 35.672165 9.253875 52.434191a9.611212 9.611212 0 0 0 9.028621 6.307134 9.444318 9.444318 0 0 0 3.303054-0.590782c4.992465-1.820468 7.546035-7.33921 5.724543-12.32246-5.368231-14.640536-8.089718-30.060249-8.089718-45.82706 0-47.431488 25.527509-91.672549 66.633433-115.464572 4.598269-2.655959 6.175052-8.531013 3.509879-13.129281-2.683603-4.626938-8.614971-6.157646-13.120066-3.501688z" fill="#108ee9" /><path d="M675.434623 102.003552c-59.40685 0-116.393236 18.441199-164.894683 53.31678-60.28944-43.443454-134.243653-61.172029-208.385237-50.012702-76.094133 11.506423-145.054858 55.418817-189.202746 120.49492-44.916825 66.202377-60.439951 148.208425-42.589534 224.996752C82.149391 501.524629 109.384741 546.891964 156.047291 593.573968 201.903019 639.419457 371.396996 809.411042 454.491433 892.768618c15.503672 15.55077 35.888205 23.32206 56.291167 23.32206 20.290335 0 40.580671-7.695522 56.047483-23.096805 124.014014-123.488761 278.21012-277.309101 308.579583-308.786408 51.711328-53.58811 82.588638-128.218088 82.588638-199.62897 0.001024-155.810773-126.753932-282.574944-282.563681-282.574943z m180.605181 463.527221c-23.57496 24.42888-133.023181 133.952869-308.204842 308.392212-20.49716 20.431632-53.813365 20.355864-74.273665-0.150512-83.132321-83.37703-252.626298-253.387045-298.482026-299.232533-43.546867-43.546867-67.759707-83.59307-78.515622-129.84197-16.161006-69.496216-2.065177-143.769882 38.647575-203.786968 39.96122-58.881597 102.259523-98.608348 170.958133-108.988497a262.31942 262.31942 0 0 1 39.285456-2.975411c53.55125 0 105.487833 16.582847 149.353129 48.201449a26.935351 26.935351 0 0 0 31.571504 0c43.790551-31.55205 95.332939-48.230118 149.05313-48.230118 140.963412 0 255.648807 114.685395 255.648807 255.658022 0.001024 63.64164-28.754795 132.97813-75.041579 180.954326z" fill="#108ee9" /></svg>