<?xml version="1.0" standalone="no"?><!DOCTYPE svg PUBLIC "-//W3C//DTD SVG 1.1//EN" "http://www.w3.org/Graphics/SVG/1.1/DTD/svg11.dtd"><svg class="icon" width="128px" height="128.00px" viewBox="0 0 1024 1024" version="1.1" xmlns="http://www.w3.org/2000/svg"><path d="M513.421153 547.010735c83.745628 0 151.633321-67.888716 151.633321-151.633321 0-49.604172-23.927176-93.510423-60.752236-121.174781 14.463404 23.22991 22.957557 50.562529 22.957557 79.940871 0 83.745628-67.888716 151.634345-151.633321 151.634345-34.140432 0-65.5389-11.419393-90.882109-30.460589 26.764362 42.988849 74.310525 71.693474 128.676788 71.693475z" fill="#c3e3fa" /><path d="M735.484474 153.211128c52.354328 62.707857 83.92788 143.365447 83.92788 231.444159 0 199.622826-230.107988 506.959413-361.448926 506.959412-34.768074 0-76.46478-21.679748-118.973427-57.051914 60.379541 65.967908 124.530053 110.39122 174.4332 110.39122 131.341962 0 361.448926-307.334539 361.448925-506.958389-0.001024-115.808597-54.6765-218.634329-139.387652-284.784488z" fill="#c3e3fa" /><path d="M513.417057 63.32014c-206.597533 0-374.680596 168.083063-374.680595 374.680596 0 199.326923 231.105252 520.194154 374.680595 520.194154s374.680596-320.868255 374.680596-520.194154c0-206.597533-168.083063-374.680596-374.680596-374.680596z m0 868.41141c-119.917449 0-348.217256-295.142112-348.217255-493.730814 0-192.01843 156.198826-348.217256 348.217255-348.217256S861.634313 245.982306 861.634313 438.000736c0 198.588702-228.299806 493.730814-348.217256 493.730814z" fill="#108ee9" /><path d="M513.417057 228.560897c-90.906682 0-164.853728 73.965476-164.853728 164.872158S422.510375 558.286784 513.417057 558.286784s164.872158-73.947046 164.872159-164.853729-73.965476-164.872158-164.872159-164.872158z m0 303.262547c-76.309149 0-138.390388-62.081239-138.390388-138.390389 0-76.327579 62.081239-138.408818 138.390388-138.408818 76.327579 0 138.408818 62.081239 138.408819 138.408818 0 76.309149-62.081239 138.390388-138.408819 138.390389z" fill="#108ee9" /></svg>