<?xml version="1.0" standalone="no"?><!DOCTYPE svg PUBLIC "-//W3C//DTD SVG 1.1//EN" "http://www.w3.org/Graphics/SVG/1.1/DTD/svg11.dtd"><svg class="icon" width="128px" height="128.00px" viewBox="0 0 1024 1024" version="1.1" xmlns="http://www.w3.org/2000/svg"><path d="M547.730526 88.970515s202.185611 47.02091 165.314477 304.142064l44.366999-3.48121s-8.452173-147.137441-54.670357-209.505367S547.730526 88.970515 547.730526 88.970515zM528.283872 129.594189S418.003232 106.210696 344.333659 202.0351c-55.350217 71.996544-30.793351 196.511239-30.793352 196.511239h26.336379l25.010447-165.92676 67.775065-58.946102 95.621674-44.079288zM520.521798 514.210568c17.206393 11.377414 28.588926 30.852736 28.588926 53.024974 0 26.509415-16.244965 49.185403-39.302862 58.730062v110.463916h-22.164046v9.723839H536.549698V635.689443c23.057898-9.544659 39.302862-32.220647 39.302863-58.730062 0-32.288224-24.155503-58.665557-55.330763-62.748813z" fill="#c3e3fa" /><path d="M795.26709 404.349721h-10.258307c1.715008 4.965844 2.841282 10.207113 2.841282 15.754523v166.367031c0 186.743373-151.384517 338.128914-338.12789 338.128914h-0.001024c-50.69973 0-98.615515-11.473659-141.781496-31.47014 55.636905 40.228454 123.790807 64.211944 197.695874 64.211945h0.001024c186.743373 0 338.12789-151.385541 338.127889-338.12789V452.846049c0-26.78484-21.713536-48.496328-48.497352-48.496328z" fill="#c3e3fa" /><path d="M512.268258 959.72867c-193.953573 0-351.744541-157.790967-351.744541-351.74454V441.608908c0-34.25306 27.861967-62.115027 62.125266-62.115027h579.25698c34.243845 0 62.105812 27.861967 62.105812 62.115027v166.376246c0 193.952549-157.790967 351.743517-351.743517 351.743516zM222.648983 406.72923c-19.239829 0-34.889916 15.640872-34.889916 34.879678v166.376246c0 178.930104 145.579087 324.508167 324.508167 324.508167s324.508167-145.579087 324.508167-324.508167V441.608908c0-19.239829-15.650087-34.879677-34.870462-34.879678H222.648983z" fill="#108ee9" /><path d="M749.923305 393.994145c-7.521462 0-13.617675-6.096213-13.617675-13.617675v-66.189067c0-123.528693-100.508679-224.028157-224.037372-224.028157s-224.018942 100.499464-224.018942 224.028157v66.189067c0 7.521462-6.096213 13.617675-13.617675 13.617675s-13.617675-6.096213-13.617675-13.617675v-66.189067c0-138.541923 112.721583-251.263506 251.254292-251.263506 138.551138 0 251.272721 112.721583 251.272721 251.263506v66.189067c0 7.521462-6.096213 13.617675-13.617674 13.617675zM536.540483 766.876798h-48.905882c-7.521462 0-13.617675-6.096213-13.617675-13.617675v-102.1428c-23.911818-13.617675-38.935287-39.048939-38.935287-67.063465 0-42.562913 34.623706-77.186619 77.186619-77.186619s77.205049 34.623706 77.205049 77.186619c0 28.185515-15.175004 53.673093-39.315149 67.234454v101.971811c0 7.521462-6.096213 13.617675-13.617675 13.617675z m-35.288207-27.23535h21.670533V642.798279a13.612555 13.612555 0 0 1 8.413265-12.573312c18.764746-7.786648 30.900859-25.906346 30.900859-46.171085 0-27.539444-22.411826-49.950246-49.969699-49.950246-27.539444 0-49.950246 22.411826-49.950246 49.950246 0 20.170541 12.003008 38.251332 30.596766 46.075863a13.634057 13.634057 0 0 1 8.337498 12.553858v96.957845z" fill="#108ee9" /><path d="M681.85336 393.994145c-7.521462 0-13.617675-6.096213-13.617674-13.617675v-60.919129c0-89.654471-69.969251-162.586846-155.967428-162.586846s-155.948998 72.931352-155.948998 162.586846v60.919129c0 7.521462-6.096213 13.617675-13.617675 13.617675s-13.617675-6.096213-13.617674-13.617675v-60.919129c0-104.668725 82.181132-189.822196 183.184347-189.822196 101.021646 0 183.202777 85.153471 183.202777 189.822196v60.919129c0 7.521462-6.096213 13.617675-13.617675 13.617675z" fill="#108ee9" /></svg>