<?xml version="1.0" standalone="no"?><!DOCTYPE svg PUBLIC "-//W3C//DTD SVG 1.1//EN" "http://www.w3.org/Graphics/SVG/1.1/DTD/svg11.dtd"><svg class="icon" width="128px" height="128.00px" viewBox="0 0 1024 1024" version="1.1" xmlns="http://www.w3.org/2000/svg"><path d="M512.631737 591.838482c-58.958389 0-114.023965-26.328187-151.108068-72.19825-5.377446-6.665493-4.332059-16.451789 2.318077-21.813877 6.695186-5.423521 16.421073-4.362775 21.829235 2.302719 31.145568 38.568736 77.425184 60.685683 126.960756 60.685683 49.838642 0 96.299486-22.359608 127.475771-61.321516 5.377446-6.665493 15.134049-7.726239 21.813877-2.423537 6.680852 5.363111 7.77129 15.118691 2.423536 21.813877-37.113795 46.353336-92.406674 72.954901-151.713184 72.954901z" fill="#108ee9" /><path d="M753.241717 188.920153a990.120658 990.120658 0 0 1 27.433983 98.274561c28.294047 126.129362-101.471131 344.523077-238.26733 357.525397-136.938519 13.01563-265.883565-24.795431-265.883565-24.795431l7.237846 35.774554 155.963332 72.811557 157.707009-1.293167 119.360455-56.680244 93.636361-128.309214 35.198106-151.108067c0.001024-0.001024-64.956309-186.147471-92.386197-202.199946z" fill="#c3e3fa" /><path d="M512.268258 749.354024c-189.251892 0-343.207385-153.970851-343.207385-343.222743S323.016366 62.923897 512.268258 62.923897s343.207385 153.955493 343.207385 343.207384S701.52015 749.354024 512.268258 749.354024z m0-655.406402c-172.133553 0-312.183659 140.049083-312.183659 312.183659s140.049083 312.197994 312.183659 312.197994 312.183659-140.064441 312.183659-312.197994S684.401811 93.947622 512.268258 93.947622z" fill="#108ee9" /><path d="M725.409442 817.704513s3.231382-52.353304-16.579775-43.867343c-44.844129 62.702737-94.363319 101.823348-178.473451 110.311357-148.732654 15.009135-240.743085-35.904587-240.743085-35.904586l-15.255891 64.61945-6.376758 29.413154H764.326299V870.704913l-38.916857-53.0004z" fill="#c3e3fa" /><path d="M764.326299 957.79967H267.981506c-4.120115 0-8.07436-1.636169-10.983218-4.545027s-4.529669-6.877438-4.529668-10.997552c0.166893-100.284448 50.323964-193.993505 130.899643-244.560129 7.211224-4.57472 16.815269-2.363127 21.37463 4.908506 4.559361 7.240917 2.363127 16.815269-4.893148 21.389989-67.471995 42.325372-110.948214 119.037932-115.887437 202.779464h464.381142c-4.984274-85.135041-49.566289-162.544867-118.795271-204.567168-7.316685-4.453901-9.650119-13.997536-5.196218-21.329579 4.453901-7.271634 13.937127-9.634761 21.31422-5.211577C728.256867 745.839026 779.671269 840.336474 779.838162 942.256067c0 4.120115-1.62081 8.089718-4.529669 10.997553s-6.862079 4.546051-10.982194 4.54605z" fill="#108ee9" /></svg>