<?xml version="1.0" standalone="no"?><!DOCTYPE svg PUBLIC "-//W3C//DTD SVG 1.1//EN" "http://www.w3.org/Graphics/SVG/1.1/DTD/svg11.dtd"><svg class="icon" width="128px" height="128.00px" viewBox="0 0 1024 1024" version="1.1" xmlns="http://www.w3.org/2000/svg"><path d="M925.67834 644.14264S751.235926 795.856848 500.651255 815.744797c-165.919593 13.637129-364.796007-91.48313-364.796007-91.48313s64.208873 109.098053 89.210105 126.144719 131.826259 128.984978 368.773801 85.23231c148.872926-27.274257 155.692002-52.844769 194.330363-90.346617 57.389796-56.253284 84.095797-68.185643 107.393284-111.939335 21.023437-39.206617 30.115539-89.210104 30.115539-89.210104z" fill="#c3e3fa" /><path d="M352.346585 567.433151a15.278417 15.278417 0 0 0-15.341898 15.341898c0 8.522821 6.819076 15.341898 15.341898 15.341898h149.441183v133.531028c0 9.091078 6.819076 16.47841 15.341897 16.478411s15.341898-7.387333 15.341898-16.478411V598.116947h149.441183c8.522821 0 15.341898-6.819076 15.341897-15.341898s-6.819076-15.341898-15.341897-15.341898H532.471563v-88.641848h149.441183c8.522821 0 15.341898-6.819076 15.341897-15.341897s-6.819076-15.341898-15.341897-15.341898h-145.463388l131.826259-153.987233c5.682564-6.819076 5.114307-16.47841-1.704769-22.160974-6.25082-5.682564-16.47841-5.114307-22.160974 1.704769L516.561409 423.106276l-127.281232-150.009439c-5.682564-6.819076-15.341898-7.387333-22.160974-1.704769s-7.387333 15.341898-1.704769 22.160974l131.826259 153.987233H352.346585c-8.522821 0-15.341898 6.819076-15.341898 15.341898s6.819076 15.341898 15.341898 15.341898h149.441183v88.641848H352.346585v0.567232z" fill="#108ee9" /><path d="M513.151871 58.310269c-201.149439 0-379.569648 135.235798-433.549906 328.997904-10.795847 39.206617-16.47841 80.119027-16.478411 121.030413 0 8.522821 6.819076 15.341898 15.341898 15.341898s15.341898-6.819076 15.341898-15.341898c0-38.070104 5.114307-76.141232 15.341897-113.075847C159.151711 215.138784 325.071304 88.994065 512.583615 88.994065c230.696722 0 418.776265 188.080567 418.776265 418.776265S743.280337 926.547619 512.583615 926.547619c-150.009439 0-289.223031-80.687283-363.659495-210.808774-4.546051-7.387333-13.637129-10.227591-21.024461-5.682563s-10.227591 13.637129-5.682563 21.024461c80.119027 139.781848 230.128466 226.718927 390.933751 226.718927 248.310621 0 450.028317-201.717696 450.028317-450.028316S761.463516 58.310269 513.151871 58.310269z" fill="#108ee9" /></svg>