<?xml version="1.0" standalone="no"?><!DOCTYPE svg PUBLIC "-//W3C//DTD SVG 1.1//EN" "http://www.w3.org/Graphics/SVG/1.1/DTD/svg11.dtd"><svg class="icon" width="128px" height="128.00px" viewBox="0 0 1024 1024" version="1.1" xmlns="http://www.w3.org/2000/svg"><path d="M854.479402 150.070872v578.900667c0 49.864239-40.422993 90.287232-90.287232 90.287232H77.013582v37.047243c0 34.396404 27.883469 62.279873 62.279873 62.279872h746.546531c32.178668 0 58.265218-26.08655 58.265218-58.265218V230.612763c0-44.481674-36.060217-80.541891-80.541891-80.541891h-9.083911z" fill="#c3e3fa" /><path d="M608.723375 411.83637h127.501368v290.031901H608.723375zM420.499464 411.83637h45.560849v290.031901h-45.560849zM373.190843 268.258979H329.642952a1.006479 1.006479 0 0 1-1.006479-1.006479V160.887197c0-0.55597 0.45051-1.006479 1.006479-1.00648h43.547891c0.55597 0 1.006479 0.45051 1.006479 1.00648v106.365303c0 0.55597-0.45051 1.006479-1.006479 1.006479zM733.15923 268.258979H689.610316a1.006479 1.006479 0 0 1-1.00648-1.006479V160.887197c0-0.55597 0.45051-1.006479 1.00648-1.00648h43.54789c0.55597 0 1.006479 0.45051 1.00648 1.00648v106.365303a1.005455 1.005455 0 0 1-1.005456 1.006479z" fill="#c3e3fa" /><path d="M288.613819 705.207161v-43.547891c0-0.55597 0.45051-1.006479 1.00648-1.006479h180.440334c0.55597 0 1.006479 0.45051 1.006479 1.006479v43.547891c0 0.55597-0.45051 1.006479-1.006479 1.006479H289.620299a1.006479 1.006479 0 0 1-1.00648-1.006479z" fill="#c3e3fa" /><path d="M692.478218 282.170509c-7.671973 0-13.896172-6.224199-13.896171-13.907434V105.673157c0-7.683235 6.224199-13.907434 13.896171-13.907435 7.671973 0 13.896172 6.224199 13.896172 13.907435v162.589918c0 7.683235-6.223175 13.907434-13.896172 13.907434zM466.066457 715.768538H299.629801c-7.671973 0-13.896172-6.224199-13.896171-13.896172s6.224199-13.896172 13.896171-13.896171h166.436656c7.671973 0 13.896172 6.224199 13.896171 13.896171s-6.224199 13.896172-13.896171 13.896172zM466.066457 570.764874H299.629801c-7.671973 0-13.896172-6.224199-13.896171-13.907434 0-7.683235 6.224199-13.907434 13.896171-13.907434h166.436656c7.671973 0 13.896172 6.224199 13.896171 13.907434 0 7.683235-6.224199 13.907434-13.896171 13.907434zM736.226791 715.768538H556.120243c-7.671973 0-13.896172-6.224199-13.896172-13.896172s6.224199-13.896172 13.896172-13.896171h180.106548c7.671973 0 13.896172 6.224199 13.896171 13.896171s-6.224199 13.896172-13.896171 13.896172zM736.226791 425.748924H556.120243c-7.671973 0-13.896172-6.224199-13.896172-13.907434 0-7.683235 6.224199-13.907434 13.896172-13.907435h180.106548c7.671973 0 13.896172 6.224199 13.896171 13.907435 0 7.683235-6.224199 13.907434-13.896171 13.907434zM466.066457 425.748924H299.629801c-7.671973 0-13.896172-6.224199-13.896171-13.907434 0-7.683235 6.224199-13.907434 13.896171-13.907435h166.436656c7.671973 0 13.896172 6.224199 13.896171 13.907435 0 7.683235-6.224199 13.907434-13.896171 13.907434z" fill="#108ee9" /><path d="M736.226791 715.768538c-7.671973 0-13.896172-6.224199-13.896172-13.896172V411.84149c0-7.683235 6.224199-13.907434 13.896172-13.907435 7.671973 0 13.896172 6.224199 13.896171 13.907435v290.030876c0 7.672997-6.224199 13.896172-13.896171 13.896172zM556.120243 715.768538c-7.671973 0-13.896172-6.224199-13.896172-13.896172V411.84149c0-7.683235 6.224199-13.907434 13.896172-13.907435 7.671973 0 13.896172 6.224199 13.896171 13.907435v290.030876c0 7.672997-6.224199 13.896172-13.896171 13.896172zM466.066457 715.768538c-7.671973 0-13.896172-6.224199-13.896172-13.896172V411.84149c0-7.683235 6.224199-13.907434 13.896172-13.907435s13.896172 6.224199 13.896171 13.907435v290.030876c0 7.672997-6.224199 13.896172-13.896171 13.896172zM328.64364 282.170509c-7.671973 0-13.896172-6.224199-13.896172-13.907434V105.673157c0-7.683235 6.224199-13.907434 13.896172-13.907435 7.671973 0 13.896172 6.224199 13.896172 13.907435v162.589918c0 7.683235-6.223175 13.907434-13.896172 13.907434z" fill="#108ee9" /><path d="M889.921193 932.471819H131.200666c-37.546899 0-68.077111-30.531237-68.077112-68.077111V214.069848c0-37.546899 30.531237-68.100661 68.077112-68.100661h758.720527c37.546899 0 68.077111 30.553762 68.077111 68.100661v650.323836c0.001024 37.546899-30.530213 68.078135-68.077111 68.078135zM131.200666 173.78508c-22.201929 0-40.284768 18.071576-40.284769 40.284768v650.323836c0 22.201929 18.082839 40.284768 40.284769 40.284768h758.720527c22.201929 0 40.284768-18.082839 40.284768-40.284768V214.069848c0-22.213192-18.082839-40.284768-40.284768-40.284768H131.200666z" fill="#108ee9" /></svg>