<?xml version="1.0" standalone="no"?><!DOCTYPE svg PUBLIC "-//W3C//DTD SVG 1.1//EN" "http://www.w3.org/Graphics/SVG/1.1/DTD/svg11.dtd"><svg class="icon" width="128px" height="128.00px" viewBox="0 0 1024 1024" version="1.1" xmlns="http://www.w3.org/2000/svg"><path d="M507.559409 77.10778c-5.542291 0-10.794823 1.077127-15.850768 2.619099 22.558241 6.881533 39.19433 27.693026 39.19433 52.424976v8.522821h31.701537v-8.522821c0-30.274241-24.769834-55.044075-55.045099-55.044075zM573.173053 856.692018c-10.899259 41.662918-43.882701 74.311549-85.426849 85.511831 9.925544 2.673365 20.189995 4.498952 30.930552 4.498952 55.706529 0 102.884093-38.384437 116.388117-90.010783" fill="#c3e3fa" /><path d="M520.620091 136.889372c-18.000928 0-35.55749 1.838898-52.834531 4.56141 164.789224 25.971875 292.07148 170.631513 292.07148 344.294751v364.077239h105.670085V485.745533c0-191.87099-155.207705-348.85616-344.907034-348.856161z" fill="#c3e3fa" /><path d="M285.831923 424.44859c-7.005423 0-12.683891-5.678468-12.683892-12.683892 0-12.224167 1.291119-24.536388 3.838547-36.583422 8.650807-40.722991 32.037372-78.06716 65.861423-105.151999 8.668213-6.952181 18.062361-13.2501 27.897803-18.716624 6.191435-3.396228 13.851121-1.185659 17.248373 4.935127 3.396228 6.138193 1.185659 13.851121-4.935128 17.248372a174.535588 174.535588 0 0 0-24.359255 16.310494c-29.259571 23.457213-49.461852 55.635881-56.909595 90.628185a152.090998 152.090998 0 0 0-3.272337 31.329867c-0.002048 7.0044-5.68154 12.683891-12.685939 12.683892z" fill="#108ee9" /><path d="M857.17734 862.514854c-7.005423 0-12.683891-5.678468-12.683891-12.683891V485.745533c0-185.360104-149.040843-336.170221-332.225191-336.170221S180.043067 300.385429 180.043067 485.745533v364.08543c0 7.005423-5.678468 12.683891-12.683891 12.683891s-12.683891-5.678468-12.683892-12.683891V485.745533c0-199.352521 160.416209-361.538004 357.592974-361.538004s357.592974 162.185483 357.592974 361.538004v364.08543c0 7.005423-5.678468 12.683891-12.683892 12.683891z" fill="#108ee9" /><path d="M567.303118 153.360616c-7.005423 0-12.683891-5.678468-12.683891-12.683892v-8.526917c0-23.351753-18.999216-42.350969-42.350969-42.350968-23.369159 0-42.368375 18.999216-42.368375 42.350968v8.526917c0 7.005423-5.678468 12.683891-12.683891 12.683892s-12.683891-5.678468-12.683892-12.683892v-8.526917c0-37.344169 30.391988-67.718751 67.736158-67.718751s67.718751 30.374582 67.718751 67.718751v8.526917c0 7.005423-5.678468 12.683891-12.683891 12.683892zM928.080375 862.514854H96.456141c-7.005423 0-12.683891-5.678468-12.683891-12.683891s5.678468-12.683891 12.683891-12.683891h831.624234c7.005423 0 12.683891 5.678468 12.683891 12.683891s-5.678468 12.683891-12.683891 12.683891z" fill="#108ee9" /><path d="M512.268258 959.386693c-61.155647 0-114.226695-41.519574-129.05153-100.976595-1.680196-6.793479 2.440943-13.675012 9.251828-15.372614 6.740237-1.592142 13.656582 2.440943 15.372614 9.251828 11.993793 48.117491 54.928376 81.729598 104.426064 81.729598 48.895644 0 91.724767-33.116547 104.125042-80.526533 1.769274-6.793479 8.756267-10.843969 15.461692-9.05729 6.775049 1.769274 10.843969 8.685619 9.05729 15.461693-15.300942 58.572384-68.213288 99.489913-128.643 99.489913z" fill="#108ee9" /></svg>