<?xml version="1.0" standalone="no"?><!DOCTYPE svg PUBLIC "-//W3C//DTD SVG 1.1//EN" "http://www.w3.org/Graphics/SVG/1.1/DTD/svg11.dtd"><svg class="icon" width="128px" height="128.00px" viewBox="0 0 1024 1024" version="1.1" xmlns="http://www.w3.org/2000/svg"><path d="M510.775433 511.916041m-434.081303 0a434.081303 434.081303 0 1 0 868.162606 0 434.081303 434.081303 0 1 0-868.162606 0Z" fill="#c3e3fa" /><path d="M451.674724 336.015614l-57.839282-92.33705c-7.101669-11.335434 1.084295-26.022046 14.501288-26.022046h204.879454c13.416993 0 21.600909 14.686611 14.501288 26.022046l-57.84133 92.33705a17.109124 17.109124 0 0 1-14.501288 8.012927h-89.198842a17.114243 17.114243 0 0 1-14.501288-8.012927z" fill="#c3e3fa" /><path d="M475.086886 393.509847h71.54194c20.736749 0 39.638696 11.104036 48.642744 28.567424l99.71312 193.398628c9.810869 19.025837 5.917033 41.754044-9.757627 56.964884L558.130129 795.769818c-26.798151 26.005663-71.399619 25.802934-97.929511-0.443343l-124.238246-122.913337c-15.385925-15.222103-19.125154-37.745533-9.396195-56.614715l99.878989-193.721152c9.003024-17.464412 27.907018-28.567424 48.64172-28.567424z" fill="#c3e3fa" /><path d="M493.294639 77.834739S291.247252 161.787192 221.895404 312.539972c-59.771354 129.927976-59.550194 228.16363-44.475531 323.582574s117.125314 276.09375 294.585118 308.114739c0 0-138.295167-4.852193-253.186363-111.129441S74.037148 601.347305 76.69413 532.479754s11.100965-177.290863 76.170925-266.25114S311.989121 113.505879 391.217368 94.507687s102.077271-16.672949 102.077271-16.672948z" fill="#FFFFFF" /><path d="M510.777481 959.556658c-246.832131 0-447.654951-200.800294-447.654951-447.643688S263.94535 64.269282 510.777481 64.269282 958.421169 265.069576 958.421169 511.91297 757.610636 959.556658 510.777481 959.556658z m0-868.168749c-231.871118 0-420.514822 188.654967-420.514822 420.526085s188.643704 420.526085 420.514822 420.526085S931.282064 743.784088 931.282064 511.91297 742.648599 91.387909 510.777481 91.387909z" fill="#108ee9" /><path d="M502.382645 397.292079L368.249572 699.146784l-37.955429-50.761163 27.224087-84.091702 83.385221-153.344233z" fill="#FFFFFF" /><path d="M555.374854 357.597069h-89.203961c-10.610524 0-20.327195-5.366183-25.98109-14.353848-0.011263 0-0.011263-0.022525-0.011263-0.022526l-57.835186-92.351384a30.533284 30.533284 0 0 1-0.849825-30.98277c5.398947-9.738173 15.678756-15.789336 26.842177-15.789336h204.874334c11.163422 0 21.453469 6.051162 26.852417 15.789336a30.536356 30.536356 0 0 1-0.849825 30.98277l-57.846449 92.351384c-5.642632 9.011215-15.35828 14.376374-25.991329 14.376374z m-92.219303-28.795751a3.580527 3.580527 0 0 0 3.014318 1.678148h89.203961a3.576431 3.576431 0 0 0 3.003056-1.656646l57.846449-92.351385c0.87235-1.412962 0.530373-2.649815 0.088054-3.445374-0.452557-0.81706-1.357672-1.811253-3.102372-1.811253H408.334683c-1.733438 0-2.638552 0.994193-3.092134 1.811253-0.441295 0.794535-0.784296 2.031388 0.088054 3.445374l57.824948 92.329883z" fill="#108ee9" /><path d="M509.397284 828.538244c-21.442206 0-42.874174-7.861392-58.740302-23.562673l-124.238245-122.913338c-19.521398-19.300238-24.301918-48.427728-11.91393-72.476747l99.881038-193.733437c11.251476-21.817972 35.078311-35.906634 60.706161-35.906635h71.537843c25.626826 0 49.454685 14.088662 60.694899 35.92916l99.715168 193.380197c12.532356 24.269154 7.563441 53.572752-12.366487 72.918042L567.586734 805.505943c-15.823124 15.348041-37.011407 23.0323-58.18945 23.032301z m-34.305278-421.475227c-15.579439 0-29.94455 8.347737-36.591614 21.243573l-99.881037 193.711936c-7.033068 13.647367-4.339226 29.657862 6.878461 40.743469l124.238246 122.913337c21.298863 21.088966 57.437919 21.266098 78.946678 0.353241l127.087718-123.333131c11.461372-11.129633 14.265794-27.206681 7.15491-40.986129l-99.715168-193.402723c-6.647064-12.89686-21.000912-21.243573-36.580351-21.243573h-71.537843z" fill="#c3e3fa" /><path d="M509.397284 828.538244c-21.431968 0-42.862911-7.861392-58.730063-23.562673h-0.011262l-22.303294-22.060633c-0.099317-0.11058-0.198634-0.198634-0.297951-0.309214l-11.096869-10.975027c-5.333419-5.278129-5.377446-13.868527-0.099317-19.189658 5.244341-5.343658 13.857264-5.366183 19.17942-0.11058l33.698114 33.344873c0.011263 0.022525 0.032764 0.022525 0.044027 0.044027 21.277361 21.023437 57.393892 21.199546 78.902651 0.309214l127.087718-123.333131c11.461372-11.129633 14.265794-27.206681 7.15491-40.986129l-99.715168-193.402723c-6.647064-12.89686-21.000912-21.243573-36.580351-21.243573h-71.537843c-15.579439 0-29.94455 8.347737-36.591614 21.243573l-99.881037 193.711936c-7.033068 13.647367-4.339226 29.657862 6.878461 40.743469l41.28408 40.831523c5.333419 5.278129 5.377446 13.868527 0.11058 19.189658-5.266866 5.343658-13.878766 5.366183-19.189659 0.11058l-41.28408-40.831523c-19.521398-19.300238-24.301918-48.427728-11.91393-72.476747l99.881038-193.733437c11.251476-21.817972 35.078311-35.906634 60.706161-35.906635h71.537843c25.626826 0 49.454685 14.088662 60.694899 35.92916l99.715168 193.380197c12.532356 24.269154 7.563441 53.572752-12.366487 72.918042L567.586734 805.505943c-15.823124 15.348041-37.011407 23.0323-58.18945 23.032301z" fill="#108ee9" /></svg>