<?xml version="1.0" standalone="no"?><!DOCTYPE svg PUBLIC "-//W3C//DTD SVG 1.1//EN" "http://www.w3.org/Graphics/SVG/1.1/DTD/svg11.dtd"><svg class="icon" width="128px" height="128.00px" viewBox="0 0 1024 1024" version="1.1" xmlns="http://www.w3.org/2000/svg"><path d="M520.851489 463.320396c-6.186315 1.203065-12.564097 1.876782-19.103653 1.876782-54.970355 0-99.532916-44.562561-99.532916-99.532916 0-54.969331 44.562561-99.531892 99.532916-99.531893 6.539556 0 12.916313 0.672693 19.103653 1.875758-45.823988 8.915993-80.42824 49.225335-80.42824 97.656135 0 48.431824 34.604252 88.740141 80.42824 97.656134zM503.236566 465.198202c10.188683 0 20.115251 1.05665 29.80223 2.799302-78.243269 14.078423-137.656262 82.362359-137.656263 164.65919 0 0 16.57568 68.275745 137.656263 78.081495-9.354216 0.757675-19.156894 1.262451-29.80223 1.262451-148.42856 0-167.458493-79.343945-167.458493-79.343946 0-92.485514 74.972979-167.458493 167.458493-167.458492z" fill="#c3e3fa" /><path d="M509.994209 75.243285c-13.8245 0-27.48313 0.706481-40.955413 2.045723 206.557602 20.548355 367.872782 194.817732 367.872782 406.782472S675.595373 870.306622 469.038796 890.854976a413.859568 413.859568 0 0 0 40.955413 2.045723c225.790263 0 408.829219-183.038956 408.829219-408.829219S735.784472 75.243285 509.994209 75.243285z" fill="#c3e3fa" /><path d="M923.347977 938.128786c14.221767-15.566129 13.995489-39.475899-0.518086-54.76865L808.923673 760.012671c-16.748716-17.648711-31.505975 15.255891-31.505976 15.255891l145.93028 162.860224z" fill="#c3e3fa" /><path d="M893.682948 959.859728c-14.345657 0-28.226471-5.89246-38.183756-16.243941L738.904251 818.961844c-4.83581-5.19417-4.567552-13.307438 0.609211-18.160654a12.833379 12.833379 0 0 1 18.160654 0.609212l116.451598 124.529029c5.139904 5.37335 11.409154 8.489033 19.934023 8.238181 7.629993-0.107508 14.668181-3.260051 19.808086-8.883229 9.635785-10.566497 9.474011-26.936375-0.35836-37.28888L800.927128 763.422209c-4.745708-5.265842-4.334107-13.37911 0.913306-18.143248a12.839522 12.839522 0 0 1 18.143248 0.913305l112.367319 124.349849c18.841538 19.843921 19.145632 51.598701 0.465868 72.051834-9.814965 10.764106-23.820692 17.050762-38.417202 17.247349-0.233446 0.01843-0.484298 0.01843-0.716719 0.01843z" fill="#108ee9" /><path d="M499.554674 905.736126c-232.507975 0-421.673861-189.165885-421.673861-421.66567 0-232.507975 189.165885-421.665669 421.673861-421.665669S921.228534 251.561457 921.228534 484.070456c0 232.499784-189.165885 421.665669-421.67386 421.66567z m0-817.647176c-218.358904 0-395.990721 177.631817-395.990721 395.98253S281.194746 880.052986 499.554674 880.052986s395.990721-177.631817 395.990721-395.98253S717.913578 88.08895 499.554674 88.08895z" fill="#108ee9" /><path d="M509.870319 478.034652c-61.951205 0-112.367319-50.407922-112.367319-112.367319s50.417137-112.376534 112.367319-112.376534c61.968612 0 112.385749 50.417137 112.385748 112.376534S571.839954 478.034652 509.870319 478.034652z m0-199.060713c-47.802134 0-86.684179 38.89126-86.68418 86.693394s38.883069 86.684179 86.68418 86.68418 86.702609-38.883069 86.702609-86.68418-38.900475-86.693394-86.702609-86.693394z" fill="#108ee9" /><path d="M509.870319 724.844257c-156.748652 0-179.064233-85.555858-179.942727-89.200889a12.911194 12.911194 0 0 1-0.35836-2.990769c0-99.418241 80.881821-180.300062 180.300063-180.300062s180.300062 80.881821 180.300062 180.300062c0 1.011599-0.124914 2.015006-0.35836 2.990769-0.875422 3.645032-23.173597 89.20089-179.940678 89.200889z m-154.616923-94.01827c3.295887 9.850801 28.190635 68.336154 154.617946 68.336155 126.444718 0 151.32206-58.494569 154.616923-68.336155-0.984978-84.419345-69.974371-152.790311-154.616923-152.790311s-153.632969 68.370966-154.617946 152.790311z m-12.84157 1.826612h0.17918-0.17918z" fill="#108ee9" /></svg>