<?xml version="1.0" standalone="no"?><!DOCTYPE svg PUBLIC "-//W3C//DTD SVG 1.1//EN" "http://www.w3.org/Graphics/SVG/1.1/DTD/svg11.dtd"><svg class="icon" width="128px" height="128.00px" viewBox="0 0 1024 1024" version="1.1" xmlns="http://www.w3.org/2000/svg"><path d="M932.934615 873.599437L806.180684 736.339418c-2.12149-2.236166-4.214312-3.736158-6.257987-4.650487 50.489833-66.380533 80.466124-149.211832 80.466123-239.046507 0-83.107748-25.705665-160.183787-69.521813-223.824404 17.081479 44.193962 26.547299 92.178348 26.547299 142.3989 0 218.282112-176.952981 395.235094-395.235094 395.235093-135.174364 0-254.446766-67.901003-325.714304-171.41069 57.163518 147.892044 200.627258 252.836194 368.688819 252.836195 115.41133 0 219.264018-49.472091 291.522677-128.360408l156.834659 175.030125c15.826195-17.322092 15.57432-43.928776-0.576448-60.947798z" fill="#c3e3fa" /><path d="M942.692242 860.240805L816.336602 718.566817c48.537284-67.95015 77.125186-151.082471 77.125186-240.768682 0-228.929496-186.244741-415.165022-415.174236-415.165022-228.920281 0-415.165022 186.235526-415.165022 415.165022s186.244741 415.165022 415.165022 415.165021c95.972867 0 184.440655-32.735662 254.832771-87.622058l125.750523 134.454573c10.865471 11.28424 26.004639 17.700929 41.637321 17.700929h0.756651c15.905035-0.219111 31.173213-7.073 41.892268-18.812869 20.352792-22.259267 20.025149-56.859424-0.464844-78.442926zM89.26437 477.798135c0-214.510119 174.514086-389.023181 389.023182-389.023182 214.519334 0 389.032396 174.514086 389.032396 389.023182S692.806886 866.821316 478.288576 866.821316c-214.510119 0-389.024205-174.513063-389.024206-389.023181z m834.604765 443.274769c-5.96106 6.507815-14.110164 10.172301-22.951414 10.300286-8.796199 0.072696-17.081479-3.354248-23.08759-9.570256L753.261171 788.602621a418.823364 418.823364 0 0 0 46.921593-48.886429l123.275793 138.207113c11.37639 11.99584 11.558641 30.935671 0.410578 43.149599z" fill="#108ee9" /><path d="M331.137825 229.745533c-14.210504 8.439887-27.845585 18.230278-40.533573 29.094725-48.911002 41.983394-82.717648 99.717216-95.177308 162.573536-3.655271 18.429936-5.514646 37.40765-5.514646 56.384341 0 7.219415 5.851505 13.07092 13.07092 13.07092s13.07092-5.851505 13.07092-13.07092c0-17.28216 1.686339-34.545891 5.003728-51.317133 11.329291-57.131777 42.07452-109.616139 86.564384-147.807061 11.539188-9.880493 23.944582-18.794439 36.860896-26.469484 6.206793-3.681892 8.249444-11.703009 4.566528-17.901611-3.693154-6.216008-11.732702-8.257635-17.911849-4.557313z" fill="#108ee9" /></svg>