<?xml version="1.0" standalone="no"?><!DOCTYPE svg PUBLIC "-//W3C//DTD SVG 1.1//EN" "http://www.w3.org/Graphics/SVG/1.1/DTD/svg11.dtd"><svg class="icon" width="128px" height="128.00px" viewBox="0 0 1024 1024" version="1.1" xmlns="http://www.w3.org/2000/svg"><path d="M510.563489 510.361783m-433.891884 0a433.891884 433.891884 0 1 0 867.783768 0 433.891884 433.891884 0 1 0-867.783768 0Z" fill="#ddd" /><path d="M674.697426 881.886765c-238.163918 26.470507-479.839762-109.618187-500.065593-375.422913-12.288672-161.491289 75.796183-318.784648 198.263107-407.396804C179.496312 156.826467 47.67722 343.399875 64.997264 550.367031 84.816613 787.186587 299.056426 967.662758 535.76745 946.588126c80.983186-7.2102 154.355832-36.364311 215.505335-80.610491-24.636729 7.356616-50.114067 12.967508-76.575359 15.90913z" fill="#FFFFFF" /><path d="M683.119907 448.235494c-3.311245 0-6.643992-1.191803-9.248757-3.64196l-65.999648-61.60718a13.467164 13.467164 0 0 1-4.304414-10.32998 13.525525 13.525525 0 0 1 4.921817-10.043291l65.999648-54.411314c5.782904-4.745708 14.32518-3.973699 19.093414 1.831731 4.768234 5.782904 3.951173 14.32518-1.831731 19.093414l-54.079575 44.588158 54.698002 51.056042c5.473691 5.098949 5.782904 13.685251 0.662454 19.159966a13.489689 13.489689 0 0 1-9.91121 4.304414z" fill="#888" /><path d="M363.922633 376.67922m-58.006176 0a58.006175 58.006175 0 1 0 116.012351 0 58.006175 58.006175 0 1 0-116.012351 0Z" fill="#ddd" /><path d="M510.550178 636.323228c-50.150927 0-95.864335-29.533972-116.502791-75.269906-3.090086-6.842626-0.044027-14.877054 6.776073-17.945638 6.798599-3.068584 14.877054-0.044027 17.945638 6.776073 16.245988 36.045883 52.269346 59.333131 91.78108 59.333131s75.556594-23.287248 91.802582-59.310606c3.090086-6.821124 11.169565-9.823156 17.945639-6.776073 6.821124 3.090086 9.867183 11.103012 6.776073 17.945639-20.637433 45.713408-66.373366 75.24738-116.524294 75.24738z" fill="#888" /><path d="M510.572704 957.79967c-246.735886 0-447.44915-200.713264-447.44915-447.426624 0-246.735886 200.713264-447.44915 447.44915-447.449149 246.71336 0 447.426624 200.713264 447.426624 447.449149 0 246.71336-200.713264 447.426624-447.426624 447.426624z m0-867.770457c-231.769754 0-420.34281 188.573056-420.34281 420.342809s188.573056 420.320284 420.34281 420.320284 420.320284-188.55053 420.320284-420.320284S742.342458 90.029213 510.572704 90.029213z" fill="#888" /><path d="M363.916489 448.235494c-39.466684 0-71.561393-32.094709-71.561393-71.561393s32.094709-71.561393 71.561393-71.561394 71.561393 32.094709 71.561393 71.561394-32.093686 71.561393-71.561393 71.561393z m0-116.01747c-24.501576 0-44.456077 19.954501-44.456077 44.456077 0 24.501576 19.954501 44.456077 44.456077 44.456076 24.501576 0 44.456077-19.954501 44.456077-44.456076 0-24.501576-19.954501-44.456077-44.456077-44.456077z" fill="#888" /></svg>