<?xml version="1.0" standalone="no"?><!DOCTYPE svg PUBLIC "-//W3C//DTD SVG 1.1//EN" "http://www.w3.org/Graphics/SVG/1.1/DTD/svg11.dtd"><svg class="icon" width="128px" height="128.00px" viewBox="0 0 1024 1024" version="1.1" xmlns="http://www.w3.org/2000/svg"><path d="M510.667925 76.732014c-14.771594 0-29.367079 0.754603-43.761882 2.185995 220.710768 21.956197 393.080839 208.167149 393.080838 434.656727S687.616811 926.274241 466.906043 948.230438a442.097301 442.097301 0 0 0 43.761882 2.185995c241.261171 0 436.842722-195.581551 436.842722-436.842721S751.929096 76.732014 510.667925 76.732014z" fill="#c3e3fa" /><path d="M511.903755 62.633113c-247.46182 0-448.781225 201.319404-448.781225 448.781225S264.441935 960.194538 511.903755 960.194538 960.684979 758.876158 960.684979 511.414338 759.365575 62.633113 511.903755 62.633113z m0 871.19945c-232.920601 0-422.419249-189.498648-422.419249-422.418225S278.984178 88.995089 511.903755 88.995089s422.418225 189.498648 422.418225 422.419249-189.497624 422.418225-422.418225 422.418225z" fill="#108ee9" /><path d="M518.697234 516.456973l0.523205-288.554434c0.01843-7.279825-5.883245-13.1815-13.163069-13.19993h-0.01843c-7.261395 0-13.16307 5.883245-13.1815 13.16307l-0.533444 294.027101 0.001024 0.012287c0 0.431056 0.020478 0.862111 0.062457 1.292143 0.023549 0.248804 0.0686 0.490441 0.106484 0.73515 0.027645 0.178156 0.045051 0.356312 0.079863 0.533444 0.054266 0.275425 0.127986 0.542659 0.198633 0.810917 0.037884 0.145392 0.067576 0.291807 0.11058 0.435151 0.079863 0.264162 0.177132 0.521158 0.272354 0.778153 0.054266 0.145392 0.100341 0.292831 0.159726 0.437199 0.100341 0.244709 0.218088 0.479178 0.332762 0.71672 0.072696 0.151535 0.139248 0.305118 0.218088 0.454605 0.122866 0.231398 0.263139 0.452557 0.399315 0.67474 0.089078 0.144368 0.168941 0.292831 0.264163 0.435152 0.166893 0.250852 0.351193 0.489417 0.535492 0.726958 0.079863 0.104436 0.151535 0.212968 0.234469 0.314333 0.277473 0.338906 0.570304 0.663478 0.879518 0.973715l0.007167 0.008191L618.951989 653.850097a13.154879 13.154879 0 0 0 9.320428 3.861071c3.382917 0 6.74638-1.287024 9.320429-3.861071 5.147072-5.165501 5.147072-13.493785 0-18.640856L518.697234 516.456973z" fill="#108ee9" /></svg>