<?xml version="1.0" standalone="no"?><!DOCTYPE svg PUBLIC "-//W3C//DTD SVG 1.1//EN" "http://www.w3.org/Graphics/SVG/1.1/DTD/svg11.dtd"><svg class="icon" width="128px" height="128.00px" viewBox="0 0 1024 1024" version="1.1" xmlns="http://www.w3.org/2000/svg"><path d="M854.489641 600.566081s27.103268-6.53546 27.103269 44.165293-27.103268-17.626186-27.103269-17.626186v-26.539107z" fill="#26B286" /><path d="M209.631305 383.282256s12.489353-2.69589-6.428976 0c-18.917305 2.69589-45.655047 32.70085-45.655046 32.70085l-7.724191 40.402515h82.785224l-22.977011-73.103365zM770.538212 383.282256l24.153455 73.103365h59.844049v-73.103365z" fill="#88c7f4" /><path d="M149.824116 459.158302s-5.609868 42.057114 38.587166 57.46966 89.353448 7.490745 89.353448 7.490745h547.413122s29.311789-5.545363 29.311789 25.350376v360.452686s2.376438 22.973939-26.935351 22.973939H215.17974s-65.587022 0-65.587022-68.921817 0.231398-404.815589 0.231398-404.815589z" fill="#88c7f4" /><path d="M837.8556 944.670389H211.807062c-40.670773 0-73.751484-33.080711-73.751484-73.770938V454.013279c0-28.21316 14.221767-54.077527 38.063961-69.190075 5.500312-3.488377 12.784232-1.830707 16.253155 3.64196 3.488377 5.491097 1.859376 12.764778-3.64196 16.253156-16.981138 10.771274-27.139104 29.189947-27.139104 49.285744 0 32.161262 26.180748 58.332795 58.342009 58.332794h618.515815c15.332683 0 27.810773 12.477067 27.810773 27.819988v376.10994c0 15.658278-12.745325 28.403603-28.404627 28.403603zM161.59163 511.416385V870.899451c0 27.695074 22.539812 50.234886 50.215432 50.234886h626.048538a4.875742 4.875742 0 0 0 4.868575-4.868575V540.156846a4.275745 4.275745 0 0 0-4.273697-4.264482H219.933639c-22.807046 0-43.469051-9.372646-58.342009-24.475979zM854.491689 472.921369c-6.497576 0-11.768538-5.270962-11.768538-11.777753v-57.038604c0-4.647415-3.794519-8.423505-8.43272-8.423504h-63.7471c-6.497576 0-11.768538-5.270962-11.768538-11.777753s5.270962-11.777753 11.768538-11.777753h63.7471c17.633353 0 31.969795 14.345657 31.969796 31.97901v57.038604c0 6.506791-5.270962 11.777753-11.768538 11.777753z" fill="#108ee9" /><path d="M296.869407 512.336858l-2.992817-7.498936 98.581727-39.33665 13.919721 34.883773-29.951718 11.951813M407.145952 459.649767l98.58275-39.335626 13.919721 34.885821-98.58275 39.334602z" fill="#c3e3fa" /><path d="M812.514438 517.031372H251.623914l-11.095845-38.840065h559.299406z" fill="#31A5F7" /><path d="M242.991537 528.034044l-59.453949-169.99568c-7.915657-22.654487 3.392132-47.216472 25.759931-55.91745L650.160014 130.639576c11.327243-4.398611 23.555506-3.948102 34.499816 1.188731 10.94431 5.146048 19.070888 14.28832 22.884861 25.759931l120.901403 362.817861-22.348345 7.436479-120.901403-362.818885c-1.763131-5.289392-5.519766-9.506775-10.560353-11.883213-5.060041-2.386677-10.73339-2.578143-15.92756-0.555969L217.844913 324.065849c-10.483562 4.082231-15.793431 15.582511-12.074679 26.190986l59.453949 169.995681-22.232646 7.781528z" fill="#88c7f4" /><path d="M827.524597 907.085606H788.271906c-3.258003 0-5.884269-2.626266-5.884269-5.884269s2.626266-5.884269 5.884269-5.884269h39.252691c3.258003 0 5.884269 2.626266 5.884269 5.884269s-2.625242 5.884269-5.884269 5.884269z m-78.504359 0h-39.252692c-3.258003 0-5.884269-2.626266-5.884269-5.884269s2.626266-5.884269 5.884269-5.884269h39.252692c3.258003 0 5.884269 2.626266 5.884269 5.884269s-2.626266 5.884269-5.884269 5.884269z m-78.505384 0h-39.252691c-3.258003 0-5.884269-2.626266-5.884269-5.884269s2.626266-5.884269 5.884269-5.884269h39.252691c3.258003 0 5.884269 2.626266 5.884269 5.884269s-2.626266 5.884269-5.884269 5.884269z m-78.505383 0h-39.252692c-3.258003 0-5.884269-2.626266-5.884269-5.884269s2.626266-5.884269 5.884269-5.884269h39.252692c3.258003 0 5.884269 2.626266 5.884269 5.884269s-2.626266 5.884269-5.884269 5.884269z m-78.505383 0h-39.252692c-3.258003 0-5.884269-2.626266-5.884269-5.884269s2.626266-5.884269 5.884269-5.884269h39.252692c3.258003 0 5.884269 2.626266 5.884269 5.884269s-2.626266 5.884269-5.884269 5.884269z m-78.505384 0h-39.252692c-3.258003 0-5.884269-2.626266-5.884269-5.884269s2.626266-5.884269 5.884269-5.884269h39.252692c3.258003 0 5.884269 2.626266 5.884269 5.884269s-2.625242 5.884269-5.884269 5.884269z m-78.504359 0h-39.252692c-3.258003 0-5.884269-2.626266-5.884269-5.884269s2.626266-5.884269 5.884269-5.884269h39.252692c3.258003 0 5.884269 2.626266 5.884269 5.884269s-2.626266 5.884269-5.884269 5.884269z m471.06916-39.213784a5.87403 5.87403 0 0 1-5.884269-5.884269v-39.252691c0-3.258003 2.626266-5.884269 5.884269-5.884269s5.884269 2.626266 5.884269 5.884269v39.252691a5.87403 5.87403 0 0 1-5.884269 5.884269z m0-78.505383a5.87403 5.87403 0 0 1-5.884269-5.884269v-39.252692c0-3.258003 2.626266-5.884269 5.884269-5.884269s5.884269 2.626266 5.884269 5.884269v39.252692a5.87403 5.87403 0 0 1-5.884269 5.884269z m0-78.505383a5.87403 5.87403 0 0 1-5.884269-5.884269v-39.252692c0-3.258003 2.626266-5.884269 5.884269-5.884269s5.884269 2.626266 5.884269 5.884269v39.252692a5.87403 5.87403 0 0 1-5.884269 5.884269z m0-78.505384a5.87403 5.87403 0 0 1-5.884269-5.884269v-39.243477c0-3.248788 2.626266-5.884269 5.884269-5.884268s5.884269 2.635481 5.884269 5.884268v39.243477a5.873006 5.873006 0 0 1-5.884269 5.884269z m-11.786968-66.708177h-39.252692c-3.258003 0-5.884269-2.635481-5.884269-5.884268s2.626266-5.884269 5.884269-5.884269h39.252692c3.258003 0 5.884269 2.635481 5.884269 5.884269s-2.626266 5.884269-5.884269 5.884268z m-78.505383 0h-39.252692c-3.258003 0-5.884269-2.635481-5.884269-5.884268s2.626266-5.884269 5.884269-5.884269h39.252692c3.258003 0 5.884269 2.635481 5.884269 5.884269s-2.626266 5.884269-5.884269 5.884268z m-78.505384 0h-39.252691c-3.258003 0-5.884269-2.635481-5.884269-5.884268s2.626266-5.884269 5.884269-5.884269h39.252691c3.258003 0 5.884269 2.635481 5.884269 5.884269s-2.626266 5.884269-5.884269 5.884268z m-78.505383 0h-39.252692c-3.258003 0-5.884269-2.635481-5.884269-5.884268s2.626266-5.884269 5.884269-5.884269h39.252692c3.258003 0 5.884269 2.635481 5.884269 5.884269s-2.626266 5.884269-5.884269 5.884268z m-78.505384 0H462.502312c-3.258003 0-5.884269-2.635481-5.884269-5.884268s2.626266-5.884269 5.884269-5.884269h39.252691c3.258003 0 5.884269 2.635481 5.884269 5.884269s-2.625242 5.884269-5.884269 5.884268z m-78.504359 0h-39.252692c-3.258003 0-5.884269-2.635481-5.884269-5.884268s2.626266-5.884269 5.884269-5.884269h39.252692c3.258003 0 5.884269 2.635481 5.884269 5.884269s-2.626266 5.884269-5.884269 5.884268z m-78.505383 0h-39.252692c-3.258003 0-5.884269-2.635481-5.884269-5.884268s2.626266-5.884269 5.884269-5.884269h39.252692c3.258003 0 5.884269 2.635481 5.884268 5.884269s-2.626266 5.884269-5.884268 5.884268z" fill="#FFFFFF" /><path d="M595.439487 704.884637c0 40.575552 32.98037 73.420769 73.555922 73.254899l206.879101-0.846753-1.185659-147.434367-206.621083 1.773369c-40.213096 0.345049-72.628282 33.039756-72.628281 73.252852z" fill="#c3e3fa" /><path d="M858.037404 789.059273H676.647927c-34.5377 0-92.975955-17.728574-92.975954-84.178732 0-67.254931 60.201385-85.02139 92.037052-85.021389 15.563057 0 171.404547-1.494873 195.688035-1.743677 4.044347 0.096245 7.781528 1.475419 10.637144 4.293151a14.930296 14.930296 0 0 1 4.42728 10.656599l0.019454 127.551538c0 15.697186-12.746348 28.44251-28.443534 28.44251z m4.888028-147.311501c-40.747564 0.402387-172.937303 1.648455-187.216407 1.648456-7.014638 0-68.499976 1.725247-68.499976 61.485337 0 58.936887 62.329019 60.64268 69.439902 60.64268h181.389477a4.916697 4.916697 0 0 0 4.906458-4.906458l-0.019454-118.870015z" fill="#88c7f4" /><path d="M269.84293 944.670389c-6.497576 0-11.768538-5.270962-11.768538-11.768538V524.114611c0-6.506791 5.270962-11.777753 11.768538-11.777753s11.768538 5.270962 11.768538 11.777753v408.788264c0 6.497576-5.270962 11.767514-11.768538 11.767514z" fill="#108ee9" /><path d="M237.130817 352.995728l152.57632-60.879197 11.450109 28.696434-152.576319 60.879197z" fill="#c3e3fa" /><path d="M520.416337 414.453421l98.582751-39.335626 13.918697 34.884797-98.582751 39.335626zM633.685699 369.257075l88.654135-35.37319 13.919721 34.883773-88.654135 35.375238z" fill="#c3e3fa" /><path d="M667.925448 703.59147m-28.123058 0a28.123058 28.123058 0 1 0 56.246117 0 28.123058 28.123058 0 1 0-56.246117 0Z" fill="#FFFFFF" /><path d="M667.927496 741.527445c-20.91081 0-37.929832-17.020046-37.929832-37.929832 0-20.92924 17.020046-37.949286 37.929832-37.949286 20.91081 0 37.929832 17.020046 37.929832 37.949286 0 20.909786-17.020046 37.929832-37.929832 37.929832z m0-56.253284c-10.100629 0-18.303998 8.222823-18.303998 18.323452s8.203369 18.303998 18.303998 18.303998c10.100629 0 18.303998-8.203369 18.303998-18.303998 0-10.101653-8.203369-18.323452-18.303998-18.323452z" fill="#c3e3fa" /><path d="M254.10786 535.921033a11.787992 11.787992 0 0 1-11.116323-7.886989l-59.453949-169.99568c-2.147088-6.143312 1.092486-12.861024 7.225559-15.007088 6.171981-2.117395 12.861024 1.092486 15.007087 7.225559l59.453949 169.995681c2.147088 6.143312-1.092486 12.861024-7.225559 15.007087a11.774681 11.774681 0 0 1-3.890764 0.66143zM718.718352 240.136945c-4.925912 0-9.525205-3.123874-11.173661-8.049787l-22.348345-67.053226c-1.763131-5.29963-5.519766-9.51599-10.560353-11.892428-5.060041-2.386677-10.73339-2.578143-15.92756-0.55597a11.759323 11.759323 0 0 1-15.255892-6.708496c-2.356984-6.056282 0.651191-12.889692 6.708497-15.237462 11.327243-4.398611 23.555506-3.948102 34.499816 1.188731 10.94431 5.146048 19.070888 14.28832 22.884861 25.759931l22.348345 67.044011c2.050842 6.171981-1.283952 12.84157-7.455933 14.901627-1.228662 0.410578-2.493161 0.603068-3.719775 0.603069zM817.27141 535.901579c-4.925912 0-9.525205-3.123874-11.173661-8.049786l-75.399939-226.238726c-2.050842-6.171981 1.283952-12.84157 7.455933-14.901627 6.152527-2.070296 12.822116 1.294191 14.892412 7.445694l75.399939 226.238726c2.050842 6.171981-1.283952 12.84157-7.455933 14.901627-1.227639 0.412626-2.492137 0.604092-3.718751 0.604092zM657.864751 787.583855c-0.747436 0-1.475419-0.076791-2.222855-0.210921-45.750268-8.739885-71.969923-38.658838-71.969923-82.070552 0-6.497576 5.270962-11.768538 11.768538-11.768538s11.768538 5.270962 11.768538 11.768538c0 40.364631 28.749676 54.317116 52.841697 58.917433 6.381877 1.226615 10.579807 7.398595 9.372647 13.780473-1.09351 5.654919-6.019422 9.583567-11.558642 9.583567zM859.801558 789.481114H684.965972c-6.497576 0-11.768538-5.270962-11.768538-11.768538s5.270962-11.768538 11.768538-11.768538H859.800534a3.157662 3.157662 0 0 0 3.143328-3.143328v-18.45758c0-6.497576 5.270962-11.768538 11.768538-11.768538s11.768538 5.270962 11.768538 11.768538v18.45758c0 14.720399-11.960004 26.680404-26.67938 26.680404z" fill="#108ee9" /><path d="M276.052794 233.308653c-20.757227 0-37.62369-16.885917-37.62369-37.632905 0-20.757227 16.866463-37.64212 37.62369-37.64212s37.62369 16.885917 37.62369 37.64212c0 20.746988-16.866463 37.632905-37.62369 37.632905z m0-51.720543c-7.762075 0-14.087638 6.315325-14.087638 14.087638 0 7.762075 6.32454 14.077399 14.087638 14.0774s14.087638-6.315325 14.087638-14.0774c0-7.772314-6.325564-14.087638-14.087638-14.087638z" fill="#88c7f4" /><path d="M555.68202 127.717408m-16.211177 0a16.211176 16.211176 0 1 0 32.422353 0 16.211176 16.211176 0 1 0-32.422353 0Z" fill="#88c7f4" /><path d="M390.979826 82.618331c-3.982914 16.443598-15.377734 38.775561-38.590238 43.789527-2.997936 0.647096-3.018414 5.421473-0.046074 6.180172 15.05521 3.845713 31.918601 15.240533 38.358839 40.151663 0.810917 3.136161 5.247412 3.158686 6.304062 0.097269 4.579839-13.271602 15.348041-32.512455 40.092278-39.401155 2.915002-0.811941 3.297935-4.813285 0.568256-6.118739-11.958981-5.7184-32.438735-14.278081-40.404562-44.614779-0.81706-3.107492-5.526933-3.205785-6.282561-0.083958zM817.137281 227.147935c-2.315005 9.55797-8.937495 22.537764-22.430256 25.451742-1.742653 0.37679-1.753916 3.151519-0.026621 3.592813 8.751148 2.235142 18.552802 8.858656 22.296127 23.337419 0.470987 1.822516 3.050154 1.835826 3.664485 0.056313 2.662102-7.713952 8.921113-18.897851 23.302606-22.901243 1.69453-0.472011 1.916713-2.797255 0.330715-3.555953-6.951157-3.323532-18.854848-8.298591-23.484857-25.931944-0.475083-1.807158-3.212952-1.864495-3.652199-0.049147z" fill="#c3e3fa" /></svg>