<?xml version="1.0" standalone="no"?><!DOCTYPE svg PUBLIC "-//W3C//DTD SVG 1.1//EN" "http://www.w3.org/Graphics/SVG/1.1/DTD/svg11.dtd"><svg class="icon" width="128px" height="128.00px" viewBox="0 0 1024 1024" version="1.1" xmlns="http://www.w3.org/2000/svg"><path d="M854.479402 150.070872v578.900667c0 49.864239-40.422993 90.287232-90.287232 90.287232H77.013582v37.047243c0 34.396404 27.883469 62.279873 62.279873 62.279872h746.546531c32.178668 0 58.265218-26.08655 58.265218-58.265218V230.612763c0-44.481674-36.060217-80.541891-80.541891-80.541891h-9.083911z" fill="#c3e3fa" /><path d="M351.416897 268.258979c-12.581503 0-22.780425-10.198922-22.780424-22.780425v-62.817412c0-12.581503 10.198922-22.780425 22.780424-22.780425 12.581503 0 22.780425 10.198922 22.780425 22.780425v62.817412c0 12.580479-10.198922 22.780425-22.780425 22.780425zM711.384261 268.258979c-12.581503 0-22.780425-10.198922-22.780425-22.780425v-62.817412c0-12.581503 10.198922-22.780425 22.780425-22.780425 12.581503 0 22.780425 10.198922 22.780425 22.780425v62.817412c0.001024 12.580479-10.198922 22.780425-22.780425 22.780425z" fill="#c3e3fa" /><path d="M692.478218 282.170509c-7.671973 0-13.896172-6.224199-13.896171-13.907434V105.673157c0-7.683235 6.224199-13.907434 13.896171-13.907435 7.671973 0 13.896172 6.224199 13.896172 13.907435v162.589918c0 7.683235-6.223175 13.907434-13.896172 13.907434zM328.64364 282.170509c-7.671973 0-13.896172-6.224199-13.896172-13.907434V105.673157c0-7.683235 6.224199-13.907434 13.896172-13.907435 7.671973 0 13.896172 6.224199 13.896172 13.907435v162.589918c0 7.683235-6.223175 13.907434-13.896172 13.907434z" fill="#108ee9" /><path d="M889.921193 932.471819H131.200666c-37.546899 0-68.077111-30.531237-68.077112-68.077111V214.069848c0-37.546899 30.531237-68.100661 68.077112-68.100661h758.720527c37.546899 0 68.077111 30.553762 68.077111 68.100661v650.323836c0.001024 37.546899-30.530213 68.078135-68.077111 68.078135zM131.200666 173.78508c-22.201929 0-40.284768 18.071576-40.284769 40.284768v650.323836c0 22.201929 18.082839 40.284768 40.284769 40.284768h758.720527c22.201929 0 40.284768-18.082839 40.284768-40.284768V214.069848c0-22.213192-18.082839-40.284768-40.284768-40.284768H131.200666z" fill="#108ee9" /><path d="M595.086246 426.709329H368.866975c-12.714608 0-23.021038-10.307454-23.021038-23.021038 0-12.714608 10.30643-23.021038 23.021038-23.021038h226.219271c12.714608 0 23.021038 10.307454 23.021038 23.021038 0 12.713584-10.30643 23.021038-23.021038 23.021038z" fill="#c3e3fa" /><path d="M667.746268 407.848337L504.911642 722.503656c-5.843314 11.291407-19.734366 15.708449-31.026797 9.865135-11.291407-5.843314-15.708449-19.734366-9.865135-31.026797l162.834626-314.655319c5.843314-11.291407 19.734366-15.708449 31.026797-9.865135 11.291407 5.843314 15.708449 19.734366 9.865135 31.026797z" fill="#c3e3fa" /><path d="M455.396548 725.458589c-2.228998 0-4.504072-0.563137-6.620443-1.711937-6.710544-3.670629-9.165821-12.070584-5.495192-18.781128l169.840049-310.471723H342.891004c-7.634089 0-13.826547-6.192458-13.826547-13.826548 0-7.634089 6.192458-13.826547 13.826547-13.826547h293.560209c4.887005 0 9.412578 2.566881 11.912906 6.778121a13.873646 13.873646 0 0 1 0.225255 13.691394L467.557234 718.252484a13.853168 13.853168 0 0 1-12.160686 7.206105z" fill="#108ee9" /></svg>