<?xml version="1.0" standalone="no"?><!DOCTYPE svg PUBLIC "-//W3C//DTD SVG 1.1//EN" "http://www.w3.org/Graphics/SVG/1.1/DTD/svg11.dtd"><svg t="1489970456590" class="icon" style="" viewBox="0 0 1024 1024" version="1.1" xmlns="http://www.w3.org/2000/svg" p-id="3164" xmlns:xlink="http://www.w3.org/1999/xlink" width="128" height="128"><defs><style type="text/css"></style></defs><path d="M350.254687 908.240533c-31.812543 0-61.666478-12.344143-84.076884-34.756595L84.79985 706.647165c-23.194258-23.170722-35.56296-53.048193-35.56296-84.824921s12.368702-61.654198 34.839483-84.1127c22.470781-22.470781 52.348252-34.839483 84.124979-34.839483 31.491225 0 61.132312 12.154831 83.531462 34.258245l98.475825 86.415139L737.369376 107.898429c0.687662-0.914836 1.447978-1.780553 2.254344-2.587941 22.470781-22.48306 52.348252-34.851763 84.124979-34.851763 31.777751 0 61.654198 12.368702 84.124979 34.851763 45.997614 45.997614 46.37726 120.614032 1.128707 167.097716L443.638541 871.217315c-0.617054 0.795109-1.293459 1.555425-2.00568 2.278903-23.26589 23.242354-54.674227 35.563984-87.685062 34.685987C352.712669 908.215974 351.489818 908.240533 350.254687 908.240533zM168.200328 551.49041c-18.790972 0-36.45426 7.312546-49.748031 20.608364-13.282514 13.282514-20.595061 30.933523-20.595061 49.724495 0 18.789948 7.312546 36.465516 20.595061 49.748031L299.830251 838.408071c13.959943 13.924127 31.598672 23.26589 50.424436 23.26589l2.753717 1.9934c0.604774 0 1.210571 0 1.839905 0l2.683109-1.9934c18.351973 0 35.598776-7.953136 48.715515-20.547988l465.244116-599.176478c0.618077-0.795109 1.282203-1.804089 2.00568-2.51631 27.421536-27.444049 27.421536-72.195276 0-99.615788-13.293771-13.294794-30.957059-20.677948-49.748031-20.677948-18.255783 0-35.455513 6.884804-48.609091 19.467377L373.342522 673.731498c-4.071735 5.412266-10.208503 8.879228-16.938788 9.567913-6.694469 0.687662-13.449313-1.436722-18.541285-5.91164L219.100602 573.177338c-0.391926-0.343831-0.783853-0.699941-1.151219-1.079588C204.654588 558.802956 186.9913 551.49041 168.200328 551.49041z" p-id="3165"></path></svg>