<?xml version="1.0" standalone="no"?><!DOCTYPE svg PUBLIC "-//W3C//DTD SVG 1.1//EN" "http://www.w3.org/Graphics/SVG/1.1/DTD/svg11.dtd"><svg t="1489970745018" class="icon" style="" viewBox="0 0 1024 1024" version="1.1" xmlns="http://www.w3.org/2000/svg" p-id="3657" xmlns:xlink="http://www.w3.org/1999/xlink" width="128" height="128"><defs><style type="text/css"></style></defs><path d="M533.098016 961.03904l-53.508681 0c-110.725824 0-123.501802-40.10337-123.501802-135.985114l0-11.168364c0-14.774495 11.979846-26.755364 26.754341-26.755364 14.774495 0 26.755364 11.979846 26.755364 26.755364l0 11.168364c0 77.069283-0.183172 82.47848 69.993121 82.47848l53.508681 0c75.0503 0 90.529853-10.034541 90.529853-82.47848l0-11.168364c0-14.774495 11.978822-26.755364 26.755364-26.755364 14.774495 0 26.754341 11.979846 26.754341 26.755364l0 11.168364C677.136549 927.989319 638.285706 961.03904 533.098016 961.03904z" p-id="3658"></path><path d="M944.676885 730.278375c0 60.954257-49.406247 110.360504-110.36255 110.360504L185.531042 840.638879c-60.95528 0-110.361527-49.405223-110.361527-110.360504l0-6.687306c0-60.953234 49.406247-110.361527 110.361527-110.361527l648.784316 0c60.95528 0 110.36255 49.40727 110.36255 110.361527L944.677908 730.278375zM891.168204 723.591069c0-31.405267-25.447579-56.853869-56.853869-56.853869L185.531042 666.7372c-31.404244 0-56.852846 25.447579-56.852846 56.853869l0 6.687306c0 31.403221 25.447579 56.852846 56.852846 56.852846l648.784316 0c31.405267 0 56.853869-25.448602 56.853869-56.852846L891.169227 723.591069z" p-id="3659"></path><path d="M824.284911 666.7372c-14.775518 0-26.755364-11.979846-26.755364-26.753317L797.529547 392.390855c0-151.144372-126.794801-274.110985-276.398074-274.110985l-19.227923 0c-149.604296 0-266.209014 122.966613-266.209014 274.110985l0 247.593028c0 14.773472-11.978822 26.753317-26.754341 26.753317-14.774495 0-26.754341-11.979846-26.754341-26.753317L182.185854 392.390855c0-180.6555 140.616598-327.619666 319.717695-327.619666l19.227923 0c179.100074 0 329.906755 146.96519 329.906755 327.619666l0 247.593028C851.037205 654.757355 839.057359 666.7372 824.284911 666.7372z" p-id="3660"></path><path d="M738.926848 439.053618c-7.394411 0-13.377682-5.982248-13.377682-13.376659 0-94.54019-56.002478-180.093704-142.665257-217.950917-6.767124-2.952238-9.863648-10.842952-6.898107-17.610076 2.952238-6.753821 10.790764-9.889231 17.609053-6.897084 96.40977 42.103934 158.709675 137.28369 158.709675 242.458077C752.303506 433.07137 746.320235 439.053618 738.926848 439.053618z" p-id="3661"></path><path d="M511.529791 189.070146c-0.417509 0-0.836041-0.013303-1.267876-0.052189-7.327896-0.692778-14.877849-1.044796-22.415522-1.044796-7.393387 0-13.376659-5.982248-13.376659-13.377682 0-7.394411 5.983271-13.375635 13.376659-13.375635 8.373715 0 16.761756 0.391926 24.925692 1.149173 7.354502 0.692778 12.749372 7.224542 12.069897 14.579043C524.190135 183.871751 518.362406 189.070146 511.529791 189.070146z" p-id="3662"></path></svg>